<svg width="246" height="35" viewBox="0 0 246 35" fill="none" xmlns="http://www.w3.org/2000/svg">
<path d="M101.371 13.1087C99.0373 13.2947 96.7069 13.4806 94.3765 13.6665V13.7006C94.4515 13.7037 94.5265 13.713 94.6014 13.7099C96.7225 13.6449 98.8405 13.5798 100.958 13.5085C101.249 13.4992 101.536 13.4899 101.827 13.4868C101.68 13.3566 101.527 13.2296 101.371 13.1087Z" fill="#FBF9FB"/>
<path d="M44.9204 17.9215C44.4393 18.4576 44.0488 19.096 43.7739 19.8273C43.4928 19.9265 43.2054 20.0102 42.9024 20.066C42.8274 20.0784 42.7368 20.0877 42.6681 20.0629C41.9528 19.7964 41.2405 19.8552 40.5283 20.0784C40.4408 20.1063 40.3534 20.1248 40.2534 20.1248C41.731 19.2013 43.2804 18.4576 44.9204 17.9215Z" fill="#FBF9FB"/>
<path d="M235.966 8.74845C232.864 8.74845 230.165 9.72773 228.275 11.6026V0H221.256V10.205C219.535 9.33726 217.53 8.64618 215.593 8.24951C208.68 6.81778 203.966 9.12343 203.029 13.5798C201.051 22.9728 216.189 22.0028 215.38 25.8456C215.106 27.1565 213.744 27.7391 210.573 27.0821C207.708 26.4933 204.731 24.9469 202.895 23.1866V19.4121C202.895 12.1387 198.621 8.74845 191.243 8.74845C187.604 8.74845 183.921 9.65336 181.287 11.3268C179.222 9.64716 176.411 8.74845 173.153 8.74845C165.278 8.74845 159.655 13.8804 159.655 21.1103C159.655 21.9285 159.727 22.7249 159.867 23.4904H157.612V18.9689H151.97V23.4904H145.042L156.322 8.96538H150.055L138.703 23.261C136.229 17.1281 124.543 19.9141 124.543 16.2449C124.543 14.9929 125.893 14.0105 129.041 14.0105C131.247 14.0105 133.63 14.4568 136.017 15.7987L138.354 10.8465C136.061 9.5077 132.371 8.74845 129.041 8.74845C128.457 8.74845 127.892 8.77014 127.351 8.81353H127.345C126.236 8.79184 125.124 8.77014 124.015 8.75155C123.044 8.73605 122.069 8.71746 121.098 8.70197C120.214 8.69267 119.276 8.5935 118.405 8.70506C117.555 8.81663 116.693 8.81353 115.84 8.96848C115.047 9.10483 114.269 9.32486 113.529 9.64096C112.841 9.92917 112.188 10.301 111.604 10.7535C111.317 10.9797 111.048 11.2152 110.795 11.4787C110.658 11.6212 110.124 12.0737 110.124 12.2751V9.10483H103.42V13.462C105.266 13.4651 107.109 13.5581 108.943 13.8277C110.311 14.0229 111.667 14.3173 113.029 14.5715C113.073 14.5808 113.113 14.6024 113.185 14.6241C111.632 15.7088 109.986 16.5951 108.371 17.5682C109.058 18.7923 109.236 20.1094 109.268 21.4636C109.243 21.4047 109.215 21.3458 109.19 21.2839C108.899 20.5091 108.602 19.7375 108.146 19.0371C107.512 18.0578 106.563 17.531 105.504 17.1467C105.176 17.029 104.848 16.9484 104.52 16.8926C104.151 16.8337 103.785 16.812 103.42 16.8306C102.767 16.8523 102.117 16.9887 101.468 17.2025C101.102 17.3234 100.743 17.4721 100.377 17.5992C100.271 17.6333 100.143 17.6519 100.034 17.6333C98.7124 17.3946 97.3879 17.1777 96.0603 16.9794C97.7128 18.0702 98.7655 20.0288 98.7655 22.6412C98.7655 26.7877 96.1102 29.2886 92.6022 29.2886C89.0942 29.2886 86.3952 26.7877 86.3952 22.6412C86.3952 20.2209 87.3105 18.3646 88.7662 17.2397C88.0664 17.1622 87.3636 17.0878 86.6638 17.0135C85.2394 16.8678 83.8118 16.7191 82.3842 16.5951C81.8844 16.5486 81.3846 16.5052 80.8848 16.4649C77.9578 16.2139 75.0308 15.9877 72.0975 15.7739C69.9921 15.6189 67.8804 15.495 65.7687 15.4175C64.7659 15.3803 63.7601 15.4919 62.7542 15.5352C62.4824 15.5507 62.2107 15.5662 61.9389 15.5848C61.5921 15.6034 61.2454 15.6251 60.8987 15.6468C60.8237 15.6499 60.7518 15.653 60.6769 15.6716C60.6394 15.6716 60.5988 15.684 60.5613 15.6902C60.6081 15.6933 60.6519 15.6964 60.6987 15.7057H60.7019C61.1173 15.7305 61.5266 15.7677 61.9389 15.8111C61.9451 15.8111 61.9514 15.8111 61.9576 15.8172C65.7968 16.1922 69.5516 16.9825 73.2315 18.1446C72.8691 18.0826 72.5067 18.0175 72.1444 17.9556C69.2142 17.469 66.2716 17.1188 63.3009 17.0321C62.8823 17.0228 62.4637 17.0104 62.0451 17.0104H61.9389C61.7827 17.0104 61.6265 17.0104 61.4703 17.0135C61.1392 17.0197 60.8081 17.029 60.4738 17.0444C59.6929 17.0816 58.9088 17.1529 58.131 17.2707C57.5218 17.3605 56.9189 17.5093 56.3098 17.6302C56.2379 17.6457 56.1474 17.6519 56.0817 17.6271C55.0821 17.2211 54.095 17.0599 53.1266 17.1002C54.6792 18.2097 55.6569 20.1217 55.6569 22.6412C55.6569 26.7877 53.0017 29.2886 49.4936 29.2886C47.8474 29.2886 46.3823 28.74 45.289 27.7298C45.2702 27.8971 45.1609 28.0242 44.9547 28.1047C44.6455 28.2225 44.3206 28.3155 43.9926 28.3558C42.4994 28.551 41.0156 28.5293 39.5568 28.1047C39.5037 28.0862 39.4537 28.0676 39.4037 28.0583C38.4853 27.8165 38.0105 27.2122 37.8856 26.298C37.8574 26.0935 37.8075 25.8983 37.7669 25.6999C38.3323 25.4644 40.9844 25.8208 41.7841 26.2639C41.4811 26.2639 41.1781 26.2453 40.8782 26.2701C40.5408 26.3042 40.2003 26.3445 39.8786 26.4437C39.6974 26.4964 39.5287 26.6513 39.3944 26.8001C39.2507 26.9612 39.2757 27.11 39.4725 27.2091C39.7317 27.3362 40.0066 27.4633 40.2878 27.519C41.4873 27.7577 42.6338 27.5996 43.7177 27.0232C43.7614 27.0015 43.8021 26.9674 43.8427 26.924C43.4053 26.986 42.9742 27.11 42.5182 26.9953C43.0274 26.8218 43.4522 26.5583 43.6802 26.0315C42.8056 25.5853 41.8872 25.3095 40.9282 25.1545C39.9754 25.0027 39.0195 24.981 38.0542 25.0367C38.0511 25.0058 38.0418 24.9872 38.048 24.9717C38.3479 24.5254 38.3073 24.0575 38.1386 23.5864C38.023 23.2672 37.9012 22.9542 37.7887 22.6381C37.745 22.5111 37.7231 22.384 37.695 22.26C37.7262 22.2477 37.7419 22.2353 37.7481 22.2384C38.5603 22.6226 39.4318 22.6443 40.3065 22.7001C40.9625 22.7404 41.5342 22.5328 42.0621 22.2012C42.5057 21.9254 42.943 21.6372 43.3803 21.3458C43.4303 20.9957 43.5053 20.6641 43.599 20.3449C43.1867 20.4998 42.7618 20.5897 42.3026 20.5649C40.9781 20.4936 39.7036 20.7632 38.4635 21.2157C38.4041 21.2405 38.3416 21.2498 38.2448 21.2312C38.4291 21.0205 38.604 20.8004 38.804 20.6083C38.9477 20.4688 39.0351 20.3232 39.0257 20.1248C39.0101 19.8924 39.1257 19.7437 39.3256 19.6166C41.4311 18.2654 43.6178 17.0723 45.995 16.2573C47.6318 15.6933 49.3093 15.3028 51.0212 15.0487C53.4046 14.6954 55.8006 14.5869 58.2028 14.6086C58.4434 14.6086 58.6808 14.6117 58.9213 14.621C59.243 14.6241 59.5617 14.6365 59.8803 14.6427H59.8834C60.1896 14.6551 60.4957 14.6644 60.7987 14.683C61.3766 14.7078 61.9108 14.5281 62.42 14.3111C63.8257 13.7161 65.2189 13.0994 66.609 12.4734C68.6988 11.5251 70.7886 10.5738 72.9816 9.86099C74.2686 9.44882 75.5774 9.08934 76.9332 8.99327C77.0737 8.98707 77.2143 8.98088 77.3549 8.97158L69.0362 8.65548L68.955 3.79316H61.9389V9.64096H58.2028V13.0591C55.9224 11.2927 52.9173 10.2794 49.4936 10.2794C43.043 10.2794 38.048 13.8897 36.6048 19.3129C36.5861 12.0334 32.4533 8.74845 26.7086 8.74845C23.0631 8.74845 19.9143 10.2205 17.9806 12.6718C16.2719 10.0407 13.3918 8.74845 10.0181 8.74845C8.42491 8.74845 6.93798 9.02736 5.62598 9.58518H4.8419V33.1158H5.77905V15.2067C6.45379 14.9154 7.21288 14.7729 8.03756 14.7729C10.9614 14.7729 12.6264 16.5579 12.6264 20.4378V33.1158H19.6456V21.0669C19.6456 16.7779 21.8479 14.7729 24.9967 14.7729C27.8331 14.7729 29.5856 16.5579 29.5856 20.4378V33.1158H36.6048V25.9726C38.0511 31.3959 43.0461 35 49.4936 35C55.6038 35 60.3801 31.7647 62.0857 26.8094C62.7792 31.2285 65.9592 33.4691 70.9792 33.4691C73.1377 33.4691 75.2526 32.9826 76.6926 31.9568L74.8027 27.0418C74.0374 27.6244 73.0034 27.9343 71.9694 27.9343C70.6293 27.9343 69.6734 27.3734 69.233 26.3166L79.7446 26.0842C81.2284 31.4424 86.1984 35 92.6022 35C97.2192 35 101.074 33.1561 103.42 30.1129V33.1158H110.436V21.7766C110.436 17.1808 113.001 15.0859 116.871 15.0859C117.258 15.0859 117.599 15.1076 117.977 15.1386C117.883 15.5786 117.839 16.0373 117.839 16.5145C117.839 26.109 132.462 22.0927 132.462 26.016C132.462 27.3548 131.247 28.2039 128.007 28.2039C125.04 28.2039 121.754 27.268 119.595 25.8828L117.255 30.8814C119.504 32.3535 123.644 33.4691 127.739 33.4691C133.721 33.4691 137.616 31.3122 138.788 28.0428H151.786V33.1158H157.612V28.0428H161.738C164.062 31.399 168.152 33.4691 173.153 33.4691C176.551 33.4691 179.469 32.4743 181.553 30.6614C183.077 32.3907 185.617 33.4691 188.95 33.4691C192.505 33.4691 195.023 32.3101 196.328 30.1222V33.1158H202.895V29.9115C204.731 30.8876 206.946 31.712 209.223 32.1861C215.187 33.4226 219.491 32.0219 221.256 28.9446V33.1158H228.275V21.2436C228.275 16.8275 230.703 14.7729 234.076 14.7729C237.181 14.7729 238.981 16.5579 238.981 20.4378V33.1158H246V19.3687C246 12.0489 241.68 8.74845 235.966 8.74845ZM180.525 23.2207C178.735 25.3745 175.027 27.7577 173.106 27.7577C169.551 27.7577 166.765 25.3033 166.765 21.1103C166.765 16.9174 169.551 14.4568 173.106 14.4568C174.911 14.4568 176.833 15.4795 178.185 17.1033C178.601 17.5992 179.269 17.782 179.863 17.5899C179.966 17.6054 180.075 17.5868 180.181 17.531C181.353 16.9112 183.03 16.2108 184.726 15.6158C186.891 14.8566 189.09 14.2801 190.299 14.2801C192.102 14.2801 193.451 14.6768 194.373 15.4144C195.866 16.6075 194.988 19.0123 193.07 19.0123H190.299C184.811 19.0123 181.737 20.6424 180.525 23.2207ZM195.878 25.5295C195.069 27.7143 193.045 28.7834 190.705 28.7834C188.231 28.7834 186.744 27.6244 186.744 25.8828C186.744 24.2806 187.782 23.072 191.065 23.072H195.878V25.5295ZM221.256 22.4088C218.286 17.937 208.977 17.8533 209.645 14.6768C209.901 13.4496 211.426 12.7647 214.509 13.4031C216.589 13.8308 219.226 15.1293 221.256 16.8337V22.4088Z" fill="#FBF9FB"/>
<path d="M97.8846 11.1812C99.1685 11.6522 100.331 12.2968 101.349 13.0901C100.971 12.9724 100.593 12.8887 100.215 12.7957C98.8592 12.4734 97.5066 12.1418 96.1508 11.8165H96.1477C94.414 11.395 92.6803 10.9797 90.9435 10.5862C90.7279 10.5366 90.5092 10.487 90.2937 10.4405C87.5729 9.84239 84.8302 9.38374 82.0562 9.15442L85.1988 9.27528H103.086L97.8846 11.1812Z" fill="#FBF9FB"/>
<path d="M90.6904 16.2604C90.0719 16.4401 89.4971 16.716 88.9848 17.0785C88.2476 16.9608 87.5104 16.8461 86.7732 16.7407C84.9051 16.468 83.034 16.2294 81.1597 16.0156C77.7953 15.6313 74.4216 15.3307 71.0417 15.0611C74.7871 14.8876 78.5357 14.714 82.2811 14.5374C83.2651 14.494 84.246 14.4475 85.23 14.401C85.23 14.4165 85.2363 14.432 85.2394 14.4475C84.5865 14.7481 83.9368 15.0487 83.2839 15.3493C83.337 15.3958 83.3745 15.402 83.412 15.4051C84.6521 15.5507 85.8891 15.6964 87.1293 15.842H87.1324C88.3195 15.9815 89.5034 16.1209 90.6904 16.2604Z" fill="#FBF9FB"/>
<path d="M90.5686 12.3092C90.4218 12.3557 90.3187 12.3898 90.2156 12.4177C89.1067 12.709 88.0477 13.1118 87.0918 13.7533C86.9356 13.8556 86.7107 13.8773 86.517 13.8897C85.2519 13.9579 83.9867 14.0353 82.7185 14.0818C82.5404 14.088 82.3624 14.0942 82.1843 14.1004C79.8571 14.1686 77.533 14.2151 75.2057 14.2585C72.0882 14.3173 68.9675 14.37 65.8468 14.4227C65.6156 14.4258 65.3813 14.4227 65.1158 14.4227C65.1564 14.3917 65.172 14.3731 65.1939 14.3607C67.14 13.2203 69.1174 12.1418 71.2353 11.3268C73.1377 10.5954 75.1151 10.2917 77.1394 10.2298C80.5068 10.1244 83.7993 10.5118 87.0293 11.2896C88.1539 11.5561 89.2691 11.8722 90.3781 12.2317C90.4249 12.2472 90.4718 12.272 90.5686 12.3092Z" fill="#FBF9FB"/>
<path d="M101.349 13.0901C101.349 13.0901 101.364 13.1025 101.371 13.1087C101.38 13.1056 101.389 13.1056 101.399 13.1056C101.383 13.0994 101.364 13.0963 101.349 13.0901Z" fill="#E6E6E6"/>
<path d="M82.0531 9.15442L77.358 8.97468C78.0234 8.94988 78.6856 8.97778 79.351 8.99947C80.2569 9.02426 81.1566 9.07694 82.0531 9.15442Z" fill="#FBF9FB"/>
<path d="M3.12381 9.89508H0V33.1158H3.12381V9.89508Z" fill="#FBF9FB"/>
<path d="M49.3562 18.1074C48.9532 18.1074 48.5627 18.1508 48.191 18.2376C47.7474 18.3398 47.3257 18.4979 46.9384 18.7055C45.2515 19.5949 44.2019 21.3242 44.2019 23.2207C44.2019 26.0377 46.5135 28.3341 49.3562 28.3341C52.1989 28.3341 54.5105 26.0377 54.5105 23.2207C54.5105 20.4038 52.1989 18.1074 49.3562 18.1074ZM49.3562 26.7846C47.3757 26.7846 45.7638 25.1855 45.7638 23.2207C45.7638 21.8975 46.4948 20.692 47.6725 20.0722C47.9442 19.9265 48.2379 19.818 48.5502 19.7468C48.8033 19.6848 49.075 19.6569 49.3562 19.6569C51.3367 19.6569 52.9486 21.2529 52.9486 23.2207C52.9486 25.1886 51.3367 26.7846 49.3562 26.7846Z" fill="#FBF9FB"/>
<path d="M96.9724 23.2238C96.7131 26.1183 93.6362 28.2411 90.7404 27.2618C86.3983 25.8084 86.3952 19.7003 90.7373 18.2438C93.6362 17.2645 96.7131 19.3935 96.9724 22.2879C96.7475 20.2116 94.7326 18.5475 92.6209 18.8078C87.854 19.44 87.8509 26.078 92.6209 26.7102C94.7326 26.9674 96.7475 25.3002 96.9724 23.2238Z" fill="#FBF9FB"/>
</svg>
