<svg width="295" height="42" viewBox="0 0 295 42" fill="none" xmlns="http://www.w3.org/2000/svg">
<path d="M121.562 15.7305C118.764 15.9536 115.97 16.1767 113.175 16.3999V16.4408C113.265 16.4445 113.355 16.4556 113.445 16.4519C115.988 16.3738 118.528 16.2957 121.068 16.2102C121.416 16.199 121.761 16.1879 122.109 16.1842C121.933 16.028 121.75 15.8755 121.562 15.7305Z" fill="#FFC000"/>
<path d="M53.8679 21.5058C53.291 22.1491 52.8228 22.9152 52.4931 23.7928C52.156 23.9118 51.8114 24.0122 51.448 24.0792C51.3581 24.094 51.2495 24.1052 51.167 24.0754C50.3092 23.7556 49.4551 23.8263 48.601 24.094C48.4961 24.1275 48.3912 24.1498 48.2714 24.1498C50.0432 23.0416 51.9013 22.1491 53.8679 21.5058Z" fill="#FFC000"/>
<path d="M282.968 10.4981C279.248 10.4981 276.011 11.6733 273.745 13.9231V0H265.328V12.246C263.264 11.2047 260.859 10.3754 258.536 9.89942C250.246 8.18134 244.593 10.9481 243.47 16.2957C241.098 27.5674 259.252 26.4034 258.281 31.0147C257.952 32.5877 256.318 33.2869 252.516 32.4985C249.081 31.7919 245.511 29.9362 243.309 27.824V23.2945C243.309 14.5665 238.184 10.4981 229.336 10.4981C224.972 10.4981 220.555 11.584 217.397 13.5922C214.921 11.5766 211.55 10.4981 207.643 10.4981C198.199 10.4981 191.456 16.6565 191.456 25.3324C191.456 26.3141 191.542 27.2699 191.711 28.1884H189.006V22.7627H182.241V28.1884H173.932L187.459 10.7585H179.944L166.331 27.9132C163.364 20.5537 149.351 23.8969 149.351 19.4939C149.351 17.9915 150.969 16.8126 154.745 16.8126C157.39 16.8126 160.248 17.3481 163.11 18.9584L165.912 13.0158C163.162 11.4092 158.738 10.4981 154.745 10.4981C154.044 10.4981 153.366 10.5242 152.718 10.5762H152.711C151.381 10.5502 150.047 10.5242 148.717 10.5019C147.552 10.4833 146.384 10.461 145.219 10.4424C144.159 10.4312 143.035 10.3122 141.99 10.4461C140.971 10.58 139.937 10.5762 138.914 10.7622C137.963 10.9258 137.03 11.1898 136.142 11.5692C135.318 11.915 134.535 12.3613 133.834 12.9042C133.49 13.1757 133.168 13.4583 132.864 13.7744C132.699 13.9455 132.059 14.4884 132.059 14.7301V10.9258H124.02V16.1544C126.234 16.1581 128.444 16.2697 130.643 16.5932C132.284 16.8275 133.909 17.1808 135.543 17.4857C135.595 17.4969 135.644 17.5229 135.73 17.549C133.868 18.8505 131.894 19.9141 129.957 21.0818C130.781 22.5507 130.995 24.1312 131.032 25.7563C131.002 25.6857 130.969 25.615 130.939 25.5406C130.59 24.6109 130.235 23.685 129.688 22.8445C128.927 21.6694 127.788 21.0372 126.518 20.5761C126.125 20.4347 125.732 20.3381 125.338 20.2711C124.896 20.2005 124.458 20.1744 124.02 20.1967C123.237 20.2228 122.458 20.3864 121.679 20.643C121.24 20.788 120.81 20.9665 120.371 21.119C120.244 21.1599 120.09 21.1822 119.959 21.1599C118.375 20.8736 116.786 20.6132 115.194 20.3752C117.176 21.6843 118.438 24.0345 118.438 27.1695C118.438 32.1452 115.254 35.1463 111.047 35.1463C106.841 35.1463 103.604 32.1452 103.604 27.1695C103.604 24.2651 104.702 22.0375 106.447 20.6876C105.608 20.5947 104.765 20.5054 103.926 20.4162C102.218 20.2414 100.506 20.0629 98.7941 19.9141C98.1947 19.8583 97.5954 19.8063 96.996 19.7579C93.486 19.4567 89.9759 19.1852 86.4584 18.9286C83.9336 18.7427 81.4013 18.5939 78.8689 18.501C77.6665 18.4563 76.4603 18.5902 75.254 18.6423C74.9281 18.6609 74.6022 18.6795 74.2763 18.7018C73.8605 18.7241 73.4447 18.7501 73.0289 18.7762C72.939 18.7799 72.8528 18.7836 72.7629 18.8059C72.718 18.8059 72.6693 18.8208 72.6243 18.8282C72.6805 18.8319 72.733 18.8357 72.7891 18.8468H72.7929C73.2911 18.8766 73.7818 18.9212 74.2763 18.9733C74.2838 18.9733 74.2913 18.9733 74.2988 18.9807C78.9027 19.4307 83.4054 20.379 87.8182 21.7735C87.3837 21.6991 86.9491 21.621 86.5146 21.5467C83.0008 20.9628 79.4721 20.5426 75.9096 20.4385C75.4076 20.4273 74.9056 20.4124 74.4037 20.4124H74.2763C74.089 20.4124 73.9017 20.4124 73.7144 20.4162C73.3173 20.4236 72.9203 20.4347 72.5194 20.4533C71.5829 20.498 70.6427 20.5835 69.7099 20.7248C68.9794 20.8327 68.2564 21.0112 67.526 21.1562C67.4398 21.1748 67.3312 21.1822 67.2525 21.1525C66.0538 20.6653 64.87 20.4719 63.7088 20.5203C65.5705 21.8516 66.743 24.1461 66.743 27.1695C66.743 32.1452 63.5589 35.1463 59.3521 35.1463C57.378 35.1463 55.6211 34.488 54.31 33.2757C54.2875 33.4765 54.1564 33.629 53.9091 33.7257C53.5383 33.867 53.1487 33.9786 52.7554 34.0269C50.9648 34.2612 49.1854 34.2352 47.436 33.7257C47.3723 33.7034 47.3124 33.6811 47.2524 33.6699C46.1511 33.3798 45.5817 32.6547 45.4319 31.5576C45.3982 31.3122 45.3382 31.0779 45.2895 30.8399C45.9676 30.5573 49.1479 30.9849 50.1069 31.5167C49.7436 31.5167 49.3802 31.4944 49.0206 31.5242C48.616 31.5651 48.2077 31.6134 47.8218 31.7324C47.6046 31.7956 47.4023 31.9816 47.2412 32.1601C47.0689 32.3535 47.0989 32.532 47.3349 32.651C47.6458 32.8034 47.9754 32.9559 48.3126 33.0228C49.751 33.3092 51.1258 33.1195 52.4257 32.4278C52.4782 32.4018 52.5269 32.3609 52.5756 32.3088C52.0511 32.3832 51.5342 32.532 50.9872 32.3944C51.5978 32.1861 52.1073 31.87 52.3808 31.2378C51.3319 30.7023 50.2305 30.3713 49.0805 30.1854C47.938 30.0032 46.7917 29.9772 45.6342 30.0441C45.6304 30.0069 45.6192 29.9846 45.6267 29.966C45.9863 29.4305 45.9376 28.869 45.7353 28.3037C45.5967 27.9207 45.4506 27.5451 45.3157 27.1658C45.2633 27.0133 45.2371 26.8608 45.2034 26.7121C45.2408 26.6972 45.2596 26.6823 45.267 26.686C46.241 27.1472 47.2862 27.1732 48.335 27.2401C49.1217 27.2885 49.8072 27.0393 50.4403 26.6414C50.9723 26.3104 51.4967 25.9646 52.0211 25.615C52.0811 25.1948 52.171 24.7969 52.2834 24.4138C51.7889 24.5998 51.2794 24.7076 50.7288 24.6779C49.1404 24.5924 47.6121 24.9159 46.1249 25.4588C46.0537 25.4886 45.9788 25.4997 45.8627 25.4774C46.0837 25.2245 46.2935 24.9605 46.5332 24.7299C46.7055 24.5626 46.8104 24.3878 46.7992 24.1498C46.7804 23.8709 46.919 23.6924 47.1588 23.5399C49.6836 21.9185 52.3058 20.4868 55.1566 19.5088C57.1195 18.8319 59.1311 18.3634 61.1839 18.0584C64.0422 17.6345 66.9154 17.5043 69.7961 17.5304C70.0845 17.5304 70.3692 17.5341 70.6577 17.5452C71.0435 17.549 71.4256 17.5638 71.8077 17.5713H71.8114C72.1785 17.5862 72.5457 17.5973 72.909 17.6196C73.602 17.6494 74.2426 17.4337 74.8532 17.1734C76.5389 16.4594 78.2096 15.7193 79.8766 14.9681C82.3827 13.8302 84.8888 12.6885 87.5185 11.8332C89.0619 11.3386 90.6315 10.9072 92.2573 10.7919C92.4258 10.7845 92.5944 10.7771 92.763 10.7659L82.7873 10.3866L82.6899 4.5518H74.2763V11.5692H69.7961V15.671C67.0615 13.5513 63.4578 12.3352 59.3521 12.3352C51.6166 12.3352 45.6267 16.6676 43.896 23.1755C43.8735 14.4401 38.9175 10.4981 32.0286 10.4981C27.657 10.4981 23.881 12.2646 21.5622 15.2061C19.5131 12.0489 16.0592 10.4981 12.0135 10.4981C10.103 10.4981 8.31994 10.8328 6.7466 11.5022H5.80635V39.739H6.93016V18.2481C7.7393 17.8985 8.64959 17.7275 9.63854 17.7275C13.1448 17.7275 15.1415 19.8695 15.1415 24.5254V39.739H23.5588V25.2803C23.5588 20.1335 26.1997 17.7275 29.9757 17.7275C33.3771 17.7275 35.4787 19.8695 35.4787 24.5254V39.739H43.896V31.1672C45.6304 37.675 51.6203 42 59.3521 42C66.6794 42 72.4071 38.1176 74.4524 32.1712C75.284 37.4742 79.0975 40.1629 85.1173 40.1629C87.7058 40.1629 90.2419 39.5791 91.9688 38.3481L89.7025 32.4501C88.7847 33.1493 87.5448 33.5212 86.3048 33.5212C84.6978 33.5212 83.5515 32.8481 83.0233 31.58L95.6287 31.301C97.4081 37.7308 103.368 42 111.047 42C116.584 42 121.207 39.7873 124.02 36.1355V39.739H132.433V26.1319C132.433 20.617 135.509 18.1031 140.15 18.1031C140.615 18.1031 141.023 18.1291 141.476 18.1663C141.364 18.6943 141.312 19.2447 141.312 19.8174C141.312 31.3308 158.847 26.5112 158.847 31.2192C158.847 32.8257 157.39 33.8447 153.505 33.8447C149.946 33.8447 146.005 32.7216 143.417 31.0593L140.611 37.0577C143.308 38.8242 148.272 40.1629 153.183 40.1629C160.356 40.1629 165.028 37.5746 166.432 33.6513H182.02V39.739H189.006V33.6513H193.955C196.742 37.6788 201.645 40.1629 207.643 40.1629C211.718 40.1629 215.217 38.9692 217.716 36.7937C219.544 38.8688 222.589 40.1629 226.586 40.1629C230.849 40.1629 233.869 38.7721 235.434 36.1466V39.739H243.309V35.8937C245.511 37.0652 248.167 38.0544 250.898 38.6233C258.049 40.1071 263.211 38.4262 265.328 34.7335V39.739H273.745V25.4923C273.745 20.193 276.656 17.7275 280.701 17.7275C284.425 17.7275 286.583 19.8695 286.583 24.5254V39.739H295V23.2424C295 14.4586 289.819 10.4981 282.968 10.4981ZM216.483 27.8649C214.337 30.4494 209.89 33.3092 207.586 33.3092C203.323 33.3092 199.982 30.3639 199.982 25.3324C199.982 20.3009 203.323 17.3482 207.586 17.3482C209.752 17.3482 212.055 18.5753 213.677 20.524C214.176 21.119 214.977 21.3384 215.689 21.1078C215.813 21.1264 215.944 21.1041 216.071 21.0372C217.476 20.2934 219.487 19.453 221.522 18.739C224.118 17.8279 226.755 17.1362 228.205 17.1362C230.366 17.1362 231.984 17.6122 233.089 18.4973C234.88 19.929 233.827 22.8148 231.527 22.8148H228.205C221.623 22.8148 217.937 24.7709 216.483 27.8649ZM234.895 30.6354C233.925 33.2571 231.497 34.5401 228.691 34.5401C225.725 34.5401 223.942 33.1493 223.942 31.0593C223.942 29.1367 225.185 27.6864 229.122 27.6864H234.895V30.6354ZM265.328 26.8906C261.765 21.5243 250.602 21.4239 251.404 17.6122C251.711 16.1395 253.539 15.3177 257.236 16.0838C259.731 16.597 262.893 18.1551 265.328 20.2005V26.8906Z" fill="#FFC000"/>
<path d="M117.382 13.4174C118.922 13.9826 120.315 14.7562 121.536 15.7082C121.083 15.5668 120.63 15.4664 120.176 15.3549C118.551 14.9681 116.929 14.5702 115.303 14.1797H115.299C113.22 13.674 111.141 13.1757 109.058 12.7034C108.8 12.6439 108.538 12.5844 108.279 12.5286C105.016 11.8109 101.727 11.2605 98.4008 10.9853L102.169 11.1303H123.619L117.382 13.4174Z" fill="#FFC000"/>
<path d="M108.755 19.5125C108.013 19.7282 107.324 20.0591 106.709 20.4942C105.825 20.3529 104.941 20.2153 104.057 20.0889C101.817 19.7616 99.5733 19.4753 97.3257 19.2187C93.2912 18.7576 89.2455 18.3968 85.1923 18.0733C89.6837 17.8651 94.179 17.6568 98.6705 17.4448C99.8505 17.3928 101.027 17.337 102.207 17.2812C102.207 17.2998 102.214 17.3184 102.218 17.337C101.435 17.6977 100.656 18.0584 99.8729 18.4192C99.9366 18.4749 99.9816 18.4824 100.027 18.4861C101.514 18.6609 102.997 18.8357 104.484 19.0104H104.488C105.912 19.1778 107.331 19.3451 108.755 19.5125Z" fill="#FFC000"/>
<path d="M108.609 14.771C108.433 14.8268 108.309 14.8677 108.185 14.9012C106.856 15.2508 105.586 15.7342 104.439 16.504C104.252 16.6267 103.982 16.6527 103.75 16.6676C102.233 16.7494 100.716 16.8424 99.1949 16.8982C98.9814 16.9056 98.7679 16.9131 98.5544 16.9205C95.7636 17.0023 92.9765 17.0581 90.1857 17.1101C86.4472 17.1808 82.7049 17.244 78.9626 17.3072C78.6854 17.311 78.4044 17.3072 78.086 17.3072C78.1347 17.2701 78.1535 17.2477 78.1797 17.2329C80.5135 15.8644 82.8847 14.5702 85.4245 13.5922C87.7058 12.7145 90.0771 12.3501 92.5045 12.2757C96.5427 12.1493 100.491 12.6141 104.364 13.5475C105.713 13.8674 107.05 14.2467 108.38 14.6781C108.436 14.6967 108.493 14.7264 108.609 14.771Z" fill="#FFC000"/>
<path d="M121.536 15.7082C121.536 15.7082 121.555 15.723 121.562 15.7305C121.574 15.7268 121.585 15.7268 121.596 15.7268C121.577 15.7193 121.555 15.7156 121.536 15.7082Z" fill="#E6E6E6"/>
<path d="M98.397 10.9853L92.7667 10.7696C93.5646 10.7399 94.3588 10.7733 95.1567 10.7994C96.243 10.8291 97.3219 10.8923 98.397 10.9853Z" fill="#FFC000"/>
<path d="M3.74603 11.8741H0V39.739H3.74603V11.8741Z" fill="#FFC000"/>
<path d="M59.1873 21.7289C58.7041 21.7289 58.2358 21.7809 57.79 21.8851C57.2581 22.0078 56.7524 22.1974 56.2879 22.4466C54.265 23.5139 53.0064 25.589 53.0064 27.8649C53.0064 31.2453 55.7784 34.0009 59.1873 34.0009C62.5962 34.0009 65.3683 31.2453 65.3683 27.8649C65.3683 24.4845 62.5962 21.7289 59.1873 21.7289ZM59.1873 32.1415C56.8123 32.1415 54.8794 30.2226 54.8794 27.8649C54.8794 26.277 55.7559 24.8304 57.1682 24.0866C57.4941 23.9118 57.8462 23.7817 58.2208 23.6961C58.5243 23.6217 58.8502 23.5883 59.1873 23.5883C61.5623 23.5883 63.4952 25.5035 63.4952 27.8649C63.4952 30.2263 61.5623 32.1415 59.1873 32.1415Z" fill="#FFC000"/>
<path d="M116.288 27.8686C115.977 31.342 112.287 33.8893 108.815 32.7142C103.608 30.9701 103.604 23.6403 108.811 21.8925C112.287 20.7174 115.977 23.2722 116.288 26.7455C116.018 24.2539 113.602 22.2569 111.07 22.5693C105.353 23.328 105.35 31.2936 111.07 32.0522C113.602 32.3609 116.018 30.3602 116.288 27.8686Z" fill="#FFC000"/>
</svg>
