<svg width="62" height="66" viewBox="0 0 62 66" fill="none" xmlns="http://www.w3.org/2000/svg">
<rect x="1.5" y="15.2252" width="38.6489" height="38.6489" rx="10.5" stroke="#FFC000" stroke-width="3"/>
<path d="M3.78613 22.0526C5.70139 23.6922 7.41504 25.5164 9.05029 27.4077C10.6575 29.3159 12.1976 31.3023 13.5864 33.3895C13.9336 33.9099 14.2864 34.4303 14.6225 34.9563L15.6081 36.5567L16.5657 38.1794L17.4729 39.8302L18.3522 41.4977L19.1754 43.1932C19.7074 44.3347 20.245 45.4762 20.7266 46.6401L11.5088 47.0822C12.4272 40.8598 14.5049 34.8052 17.4673 29.2543C20.441 23.7034 24.2995 18.6393 28.8469 14.3418C33.383 10.0387 38.6248 6.5078 44.2585 3.98414C45.6866 3.3854 47.1314 2.84261 48.5539 2.29424C50.0323 1.85218 51.4996 1.41571 52.9724 1.0352C54.4788 0.733036 55.9797 0.470039 57.4637 0.240615C58.987 0.106318 60.499 0.0167871 61.9999 0C60.7398 0.867333 59.4854 1.66192 58.2422 2.41175C57.0325 3.26229 55.8397 4.07367 54.6525 4.85147C53.51 5.72999 52.362 6.55816 51.2252 7.38072C50.1275 8.27044 49.0523 9.16575 47.9547 9.99951C43.6929 13.5528 39.8568 17.4138 36.3903 21.5155C32.935 25.6227 29.8661 29.9929 27.2564 34.6206C24.6412 39.2426 22.4963 44.1109 20.8442 49.2086L15.6305 65.313L11.6264 49.6506C11.4808 49.091 11.352 48.5203 11.2232 47.9551L10.8031 46.2596L9.91832 42.863L8.99429 39.4497L8.01426 36.0307C7.33104 33.7532 6.65902 31.4478 5.931 29.1368C5.22538 26.809 4.46375 24.4812 3.78613 22.0526Z" fill="#24393E"/>
</svg>
