<svg width="21" height="22" viewBox="0 0 21 22" fill="none" xmlns="http://www.w3.org/2000/svg">
<path d="M18.25 2H17.25V0H15.25V2H5.25V0H3.25V2H2.25C1.71957 2 1.21086 2.21071 0.835786 2.58579C0.460714 2.96086 0.25 3.46957 0.25 4V20C0.25 20.5304 0.460714 21.0391 0.835786 21.4142C1.21086 21.7893 1.71957 22 2.25 22H18.25C18.7804 22 19.2891 21.7893 19.6642 21.4142C20.0393 21.0391 20.25 20.5304 20.25 20V4C20.25 3.46957 20.0393 2.96086 19.6642 2.58579C19.2891 2.21071 18.7804 2 18.25 2ZM5.78 20H2.25V16.47L11.66 7.06L15.19 10.59L5.78 20ZM17.97 7.81L16.13 9.65L12.6 6.12L14.45 4.28C14.5358 4.1917 14.6383 4.1215 14.7517 4.07357C14.8651 4.02564 14.9869 4.00094 15.11 4.00094C15.2331 4.00094 15.3549 4.02564 15.4683 4.07357C15.5817 4.1215 15.6843 4.1917 15.77 4.28L17.97 6.48C18.0574 6.5673 18.1267 6.67096 18.174 6.78507C18.2213 6.89917 18.2456 7.02148 18.2456 7.145C18.2456 7.26852 18.2213 7.39083 18.174 7.50493C18.1267 7.61904 18.0574 7.7227 17.97 7.81Z" fill="black"/>
</svg>
