<svg width="25" height="25" viewBox="0 0 25 25" fill="none" xmlns="http://www.w3.org/2000/svg">
<path d="M0.000574615 13.7135C0.000574615 10.2823 0.000574615 6.85107 0.00245169 3.41986C0.00245169 2.77452 0.263365 2.48374 0.907202 2.44622C1.30514 2.42183 1.70496 2.43496 2.1029 2.43496C6.02786 2.43496 9.95471 2.43496 13.8797 2.43684C14.043 2.43684 14.2082 2.44247 14.3715 2.4556C14.6755 2.47811 14.822 2.62256 14.8313 2.9321C14.8426 3.26791 14.8407 3.60371 14.8351 3.93952C14.8295 4.28282 14.6624 4.46104 14.3152 4.47042C13.737 4.48731 13.1589 4.49106 12.5789 4.49106C9.44226 4.48918 6.30755 4.48168 3.17095 4.47793C3.03768 4.47793 2.90441 4.4798 2.77302 4.49856C2.32252 4.5586 2.04096 4.86063 2.02031 5.31275C2.00905 5.56976 2.01655 5.82865 2.01655 6.08566C2.01655 11.346 2.0128 16.6063 2.01655 21.8647C2.01655 22.0429 2.03157 22.2268 2.08037 22.3956C2.17235 22.7183 2.47456 22.934 2.8481 22.9434C3.28546 22.9565 3.72282 22.9434 4.16205 22.9434C9.18323 22.9471 14.2025 22.9509 19.2237 22.9528C19.372 22.9528 19.5203 22.9528 19.6686 22.9471C20.1547 22.9265 20.4945 22.6076 20.517 22.1198C20.5358 21.6902 20.5245 21.2606 20.5245 20.831C20.5245 17.548 20.5208 14.265 20.5189 10.9839C20.5189 10.2166 20.5921 10.1434 21.3636 10.1416C21.5438 10.1416 21.724 10.1378 21.9023 10.1416C22.396 10.1491 22.5311 10.2785 22.5311 10.7682C22.5311 13.5503 22.5311 16.3324 22.5311 19.1164C22.5311 20.7579 22.5311 22.3994 22.533 24.0409C22.533 24.6243 22.2646 24.9357 21.6902 24.9789C21.3317 25.0051 20.9713 24.9995 20.6127 24.9995C14.1687 24.9995 7.72474 24.9995 1.28074 24.9995C1.10993 24.9995 0.935358 24.9939 0.766421 24.9732C0.29903 24.9188 0.0137141 24.6187 0.00620584 24.1478C-0.00505661 23.5231 0.00245169 22.8965 0.00245169 22.2718C0.00245169 19.4184 0.00245169 16.5669 0.00245169 13.7135H0.000574615Z" fill="black"/>
<path d="M19.8262 2.76702C20.6371 3.58495 21.418 4.371 22.2101 5.1683C22.1576 5.22645 22.0975 5.29774 22.0318 5.36152C19.4696 7.91851 16.9093 10.4755 14.3471 13.0325C14.2194 13.1601 14.0861 13.282 13.9773 13.4227C13.8647 13.5672 13.7727 13.5596 13.6525 13.4415C13.3447 13.13 13.0331 12.8224 12.7234 12.5147C12.3517 12.1451 11.9801 11.7756 11.6103 11.406C11.4057 11.2034 11.4076 11.1921 11.6178 10.982C14.1518 8.4513 16.684 5.92245 19.2181 3.39172C19.4227 3.18724 19.6216 2.98088 19.8281 2.76889L19.8262 2.76702Z" fill="black"/>
<path d="M22.9253 4.5192C22.1088 3.6825 21.3354 2.89271 20.5414 2.0804C20.6484 1.96972 20.7967 1.81213 20.9487 1.6583C21.4161 1.18742 21.8835 0.716548 22.3528 0.245672C22.6681 -0.0713718 23.0379 -0.0863797 23.3664 0.228788C23.8263 0.6734 24.2768 1.12927 24.7254 1.58514C25.0839 1.95096 25.0952 2.26988 24.7367 2.64508C24.2449 3.15722 23.7324 3.64874 23.2313 4.15338C23.1224 4.26406 23.0304 4.39163 22.9272 4.51732L22.9253 4.5192Z" fill="black"/>
<path d="M13.127 14.2238C11.9651 14.6102 10.8144 14.9929 9.66188 15.3775C9.64499 15.3587 9.62997 15.34 9.61308 15.3212C9.99037 14.1844 10.3677 13.0456 10.745 11.9088C10.9345 11.9538 12.791 13.7529 13.127 14.2238Z" fill="black"/>
</svg>
