<svg width="29" height="30" viewBox="0 0 29 30" fill="none" xmlns="http://www.w3.org/2000/svg">
<path fill-rule="evenodd" clip-rule="evenodd" d="M14.5 3.02246C17.3842 3.02246 20.1503 4.16822 22.1898 6.20767C24.2292 8.24713 25.375 11.0132 25.375 13.8975C25.375 17.6119 23.3498 20.652 21.2159 22.8331C20.1496 23.9108 18.9863 24.888 17.7408 25.7524L17.226 26.1028L16.9843 26.2635L16.5288 26.5535L16.1228 26.8013L15.6201 27.0937C15.2788 27.288 14.8928 27.3901 14.5 27.3901C14.1072 27.3901 13.7212 27.288 13.3799 27.0937L12.8772 26.8013L12.2489 26.4146L12.0169 26.2635L11.5215 25.9337C10.1778 25.0242 8.92604 23.9857 7.78408 22.8331C5.65017 20.6496 3.625 17.6119 3.625 13.8975C3.625 11.0132 4.77076 8.24713 6.81021 6.20767C8.84967 4.16822 11.6158 3.02246 14.5 3.02246ZM14.5 5.43913C12.2567 5.43913 10.1053 6.33027 8.51906 7.91652C6.93281 9.50276 6.04167 11.6542 6.04167 13.8975C6.04167 16.7032 7.57867 19.1658 9.51079 21.1426C10.3417 21.9835 11.2396 22.7554 12.1957 23.4505L12.7491 23.8445C12.928 23.9689 13.0995 24.0849 13.2651 24.1925L13.7363 24.4945L14.1508 24.7471L14.5 24.9513L15.0498 24.6263L15.4932 24.3483C15.7289 24.1985 15.9826 24.0305 16.2509 23.8445L16.8043 23.4505C17.7604 22.7554 18.6583 21.9835 19.4892 21.1426C21.4213 19.167 22.9583 16.7032 22.9583 13.8975C22.9583 11.6542 22.0672 9.50276 20.4809 7.91652C18.8947 6.33027 16.7433 5.43913 14.5 5.43913ZM14.5 9.06413C15.7819 9.06413 17.0113 9.57335 17.9177 10.4798C18.8241 11.3862 19.3333 12.6156 19.3333 13.8975C19.3333 15.1793 18.8241 16.4087 17.9177 17.3151C17.0113 18.2216 15.7819 18.7308 14.5 18.7308C13.2181 18.7308 11.9887 18.2216 11.0823 17.3151C10.1759 16.4087 9.66667 15.1793 9.66667 13.8975C9.66667 12.6156 10.1759 11.3862 11.0823 10.4798C11.9887 9.57335 13.2181 9.06413 14.5 9.06413ZM14.5 11.4808C13.8591 11.4808 13.2444 11.7354 12.7912 12.1886C12.3379 12.6418 12.0833 13.2565 12.0833 13.8975C12.0833 14.5384 12.3379 15.1531 12.7912 15.6063C13.2444 16.0595 13.8591 16.3141 14.5 16.3141C15.1409 16.3141 15.7556 16.0595 16.2088 15.6063C16.6621 15.1531 16.9167 14.5384 16.9167 13.8975C16.9167 13.2565 16.6621 12.6418 16.2088 12.1886C15.7556 11.7354 15.1409 11.4808 14.5 11.4808Z" fill="white"/>
</svg>
