<svg width="49" height="23" viewBox="0 0 49 23" fill="none" xmlns="http://www.w3.org/2000/svg">
<path d="M12.3117 10.4085C10.899 9.0117 9.51199 7.64016 8.08108 6.22525C12.4067 2.43408 17.4396 0.363215 23.2363 0V5.92167C19.1062 6.24332 15.4695 7.73051 12.3117 10.4085Z" fill="black"/>
<path d="M25.7674 0C31.5586 0.361408 36.5878 2.43227 40.8952 6.20176C39.4716 7.60944 38.0772 8.99002 36.6646 10.3869C33.5432 7.73774 29.9066 6.24332 25.7674 5.91986V0Z" fill="black"/>
<path d="M38.4847 12.1867C39.9102 10.7826 41.3009 9.41286 42.7245 8.0106C46.5347 12.2734 48.6363 17.241 49 22.9711H43.0114C42.8615 20.9761 42.4156 19.0552 41.6426 17.2157C40.8659 15.3707 39.806 13.701 38.4866 12.1867H38.4847Z" fill="black"/>
<path d="M10.4732 12.1487C9.89576 12.9565 9.27625 13.7425 8.7408 14.581C7.16734 17.044 6.27371 19.7401 6.02152 22.644C6.00507 22.8229 6.03066 23.0018 5.7474 23C3.85962 22.9928 1.97184 22.9964 0 22.9964C0.349047 17.2518 2.45978 12.2824 6.27919 7.99795C7.69914 9.40202 9.09533 10.7844 10.4732 12.1469V12.1487Z" fill="black"/>
<path d="M24.6983 23C24.0532 23 23.4392 22.6711 23.0554 21.988C22.6497 21.267 22.6588 20.5171 23.1614 19.8557C24.044 18.6902 24.9614 17.5481 25.888 16.4151C27.529 14.4075 29.1866 12.4144 30.8386 10.414C30.855 10.3941 30.866 10.3634 30.8861 10.3543C31.014 10.2983 31.1456 10.2477 31.2754 10.1971C31.3101 10.3399 31.4088 10.5079 31.3667 10.6218C31.0981 11.3392 30.802 12.0475 30.5042 12.7541C29.2414 15.7447 27.9786 18.7372 26.7067 21.7242C26.3576 22.541 25.6961 22.9783 24.7019 23H24.6983Z" fill="black"/>
</svg>
