<svg width="23" height="23" viewBox="0 0 23 23" fill="none" xmlns="http://www.w3.org/2000/svg">
<path d="M15.693 14.5059L15.0512 13.8973L15.693 14.5071V14.5059ZM19.758 21.2374L19.1151 20.6276L19.7568 21.2374H19.758ZM18.1938 22.0748L18.2811 22.9536L18.1938 22.0736V22.0748ZM1.7684 5.51568C1.76213 5.39966 1.73306 5.28602 1.68286 5.18123C1.63266 5.07645 1.56231 4.98258 1.47583 4.90498C1.38935 4.82738 1.28843 4.76757 1.17883 4.72897C1.06923 4.69036 0.953102 4.67372 0.837071 4.68C0.721041 4.68627 0.607383 4.71533 0.502586 4.76553C0.397789 4.81572 0.303905 4.88606 0.226296 4.97253C0.148686 5.05901 0.088871 5.15992 0.0502645 5.2695C0.0116581 5.37909 -0.00498323 5.4952 0.00129077 5.61122L1.7684 5.51568ZM2.90794 0.99462C2.75301 1.16581 2.67116 1.39079 2.67986 1.6215C2.68856 1.85221 2.78712 2.07038 2.9545 2.22943C3.12187 2.38848 3.34481 2.47579 3.57569 2.47273C3.80658 2.46967 4.02711 2.37648 4.19022 2.21305L2.90794 0.99462ZM9.92213 20.716C10.0205 20.7794 10.1305 20.8227 10.2457 20.8433C10.3609 20.8639 10.4791 20.8614 10.5933 20.836C10.7076 20.8106 10.8156 20.7628 10.9113 20.6954C11.0069 20.6279 11.0883 20.5422 11.1505 20.4431C11.2128 20.344 11.2548 20.2335 11.2741 20.1181C11.2933 20.0027 11.2895 19.8846 11.2628 19.7706C11.2361 19.6567 11.1871 19.5492 11.1185 19.4543C11.05 19.3595 10.9633 19.2792 10.8635 19.218L9.92213 20.716ZM15.1704 21.0062C14.9406 20.9582 14.7011 21.0034 14.5047 21.1319C14.3082 21.2604 14.1709 21.4617 14.1229 21.6915C14.0748 21.9212 14.1201 22.1607 14.2486 22.3571C14.3771 22.5535 14.5784 22.6909 14.8082 22.7389L15.1704 21.0062ZM15.798 15.6819L16.3347 15.1157L15.0512 13.8973L14.5145 14.4634L15.798 15.6819ZM18.103 14.8774L20.3561 16.1749L21.2385 14.6415L18.9854 13.3441L18.103 14.8774ZM20.7914 18.8642L19.1151 20.6276L20.3986 21.8472L22.0737 20.0826L20.7914 18.8642ZM7.20304 16.1714C2.63073 11.3578 1.86395 7.29674 1.7684 5.51568L0.00129077 5.61122C0.119256 7.79331 1.0441 12.2566 5.92076 17.3898L7.20304 16.1714ZM8.82623 8.34297L9.16361 7.98675L7.88134 6.76832L7.54278 7.12453L8.82623 8.34297ZM9.43021 3.5518L7.94268 1.44873L6.49761 2.47019L7.98397 4.57325L9.43021 3.5518ZM8.18333 7.73316C7.97101 7.52858 7.7567 7.32609 7.54042 7.12571L7.53806 7.12807L7.53452 7.13161C7.51358 7.15328 7.49389 7.17612 7.47554 7.20002C7.3599 7.35306 7.2684 7.52292 7.20422 7.70367C7.08861 8.02804 7.02727 8.45738 7.10513 8.99288C7.25848 10.045 7.94858 11.4592 9.7499 13.3571L11.0334 12.1374C9.34882 10.3646 8.93358 9.2736 8.85573 8.73574C8.81798 8.47625 8.85573 8.34061 8.87106 8.29696L8.8805 8.27455C8.87085 8.29008 8.85979 8.30469 8.84747 8.3182C8.84055 8.32621 8.83347 8.33525 8.82623 8.34297L8.18333 7.73316ZM9.7499 13.3559C11.5465 15.2478 12.9031 15.9909 13.9376 16.1596C14.4697 16.2457 14.9002 16.1761 15.2258 16.0475C15.4062 15.9767 15.5739 15.8771 15.7225 15.7526L15.7649 15.7125L15.7814 15.696C15.7842 15.6937 15.787 15.6913 15.7897 15.689L15.7932 15.6854L15.7944 15.6831C15.7944 15.6831 15.7968 15.6819 15.155 15.0721C14.5133 14.4634 14.5145 14.4623 14.5145 14.4611L14.5169 14.4599L14.5192 14.4564L14.5263 14.4505C14.5441 14.4332 14.5626 14.4167 14.5817 14.4009C14.5924 14.3939 14.5912 14.3962 14.5758 14.4021C14.5522 14.4115 14.4461 14.4493 14.2219 14.4127C13.7477 14.3349 12.7238 13.9173 11.0334 12.1374L9.7499 13.3559ZM7.94268 1.44873C6.74652 -0.242686 4.35419 -0.529307 2.90794 0.99462L4.19022 2.21305C4.80717 1.56432 5.89363 1.61504 6.49761 2.47019L7.94268 1.44873ZM19.1151 20.6276C18.786 20.9743 18.4427 21.1607 18.1077 21.1937L18.2811 22.9536C19.1623 22.8674 19.876 22.398 20.3986 21.8472L19.1151 20.6287V20.6276ZM9.16361 7.98675C10.3055 6.78483 10.3857 4.90469 9.43021 3.5518L7.98515 4.57325C8.48296 5.27742 8.40628 6.21631 7.88134 6.76832L9.16361 7.98675ZM20.3561 16.1749C21.3246 16.7328 21.5145 18.1034 20.7914 18.8642L22.0737 20.0826C23.6131 18.462 23.1637 15.7503 21.2385 14.6415L20.3561 16.1749ZM16.3347 15.1157C16.7889 14.6368 17.4978 14.5295 18.103 14.8774L18.9854 13.3441C17.6889 12.5986 16.0834 12.8121 15.0512 13.8973L16.3347 15.1157ZM10.8635 19.218C9.70389 18.4891 8.4688 17.503 7.20304 16.1714L5.92076 17.3898C7.28208 18.8229 8.63041 19.9045 9.92213 20.716L10.8635 19.218ZM18.1065 21.1937C17.124 21.28 16.134 21.2168 15.1704 21.0062L14.8082 22.7389C15.9483 22.9858 17.1193 23.0582 18.2811 22.9536L18.1077 21.1937H18.1065Z" fill="white"/>
</svg>
