<svg width="45" height="45" viewBox="0 0 45 45" fill="none" xmlns="http://www.w3.org/2000/svg">
<rect width="45" height="45" rx="22.5" fill="#C7C7C7" fill-opacity="0.2"/>
<path d="M32.7499 16.9602C32.0327 17.2695 31.2522 17.4922 30.4483 17.5789C31.283 17.0831 31.908 16.2997 32.2062 15.3758C31.4229 15.8417 30.5649 16.1684 29.6702 16.3414C29.2963 15.9416 28.844 15.6231 28.3415 15.4058C27.8391 15.1885 27.2973 15.0769 26.7499 15.0781C24.5351 15.0781 22.7538 16.8734 22.7538 19.0766C22.7538 19.3859 22.7913 19.6953 22.8522 19.993C19.5358 19.8195 16.578 18.2352 14.6116 15.8094C14.2533 16.4214 14.0656 17.1182 14.0679 17.8274C14.0679 19.2149 14.7733 20.4383 15.8491 21.1578C15.2151 21.1329 14.596 20.9586 14.0421 20.6492V20.6984C14.0421 22.6414 15.4155 24.2516 17.246 24.6219C16.9023 24.7112 16.5487 24.7568 16.1937 24.7578C15.9335 24.7578 15.6874 24.732 15.439 24.6969C15.9452 26.2813 17.4194 27.432 19.1749 27.4695C17.8015 28.5453 16.0812 29.1781 14.2132 29.1781C13.878 29.1781 13.5687 29.1664 13.2476 29.1289C15.0194 30.2656 17.1218 30.9219 19.3858 30.9219C26.7358 30.9219 30.7577 24.8328 30.7577 19.5477C30.7577 19.3742 30.7577 19.2008 30.746 19.0274C31.5241 18.4578 32.2062 17.7524 32.7499 16.9602Z" fill="#FFC000"/>
</svg>
