<svg width="155" height="155" viewBox="0 0 155 155" fill="none" xmlns="http://www.w3.org/2000/svg">
<circle cx="77.5" cy="77.5" r="77.5" fill="#FFC000"/>
<path d="M59.0032 29C59.5865 29.062 60.1699 29.1208 60.7532 29.1828C63.2685 29.4492 65.6943 30.0844 68.0306 31.0479C71.6632 32.5474 74.8482 34.7161 77.5673 37.5603C81.385 41.5538 83.8571 46.2569 84.9034 51.7004C85.3848 54.2068 85.5114 56.7318 85.2675 59.2724C84.6688 65.5493 82.1998 70.9897 77.953 75.6184C74.6569 79.2092 70.6787 81.7652 66.0492 83.274C62.7932 84.3367 59.4508 84.7611 56.0311 84.5381C49.8617 84.1353 44.4298 81.8891 39.7541 77.8584C34.9672 73.7347 31.884 68.5514 30.5755 62.3458C29.5662 57.5684 29.9088 52.8653 31.4118 48.218C32.0075 46.3746 32.6927 44.5808 33.5506 42.8489C33.6957 42.5577 33.8654 42.2788 34.0352 41.969C33.5136 41.4981 32.9889 41.0179 32.4643 40.5438C31.9211 40.0543 31.4149 39.5059 30.8162 39.1001C30.3687 38.7965 30.3563 38.434 30.3625 38.0064C30.3687 37.5448 30.6557 37.1885 31.1217 37.1203C32.3532 36.9345 33.5877 36.73 34.8253 36.5998C37.2418 36.3458 39.6677 36.2962 42.0935 36.3551C42.6521 36.3675 43.2107 36.3861 43.7662 36.4078C44.257 36.4263 44.7353 36.9592 44.7662 37.5789C44.8156 38.5362 44.8434 39.4936 44.8526 40.4509C44.8711 42.5515 44.7971 44.6489 44.5533 46.734C44.4329 47.7719 44.2446 48.8067 44.0656 49.8384C43.9761 50.3527 43.4113 50.6625 42.8867 50.4859C42.6737 50.4146 42.4731 50.2752 42.2972 50.1265C41.2787 49.2714 40.2664 48.4039 39.1831 47.4807C38.7881 48.0445 38.3683 48.5681 38.0288 49.1382C37.0999 50.709 36.6153 52.4378 36.4055 54.2409C36.3067 55.0774 36.2635 55.9232 36.1925 56.7814C36.1184 56.7907 36.032 56.8031 35.924 56.8155C35.9147 56.8775 35.8993 56.9456 35.8993 57.0107C35.8993 58.473 36.0567 59.9168 36.3653 61.345C37.3159 65.7476 39.4208 69.5119 42.6706 72.6162C45.7723 75.5781 49.4327 77.5114 53.6516 78.2859C59.7285 79.4013 65.3425 78.1961 70.3639 74.5774C75.0704 71.1849 78.0117 66.581 79.1104 60.8586C80.0826 55.7993 79.3326 50.9661 76.8944 46.4273C74.7989 42.5205 71.7589 39.5369 67.8609 37.4457C65.327 36.0855 62.6265 35.2676 59.7686 35.0012C55.917 34.6387 52.2288 35.2552 48.7413 36.9716C48.6611 37.0119 48.5778 37.0429 48.4852 37.0863C48.2969 36.6091 48.1272 36.1444 47.9266 35.6921C47.2105 34.0779 45.9822 33.102 44.2601 32.7581C44.0934 32.724 43.9206 32.724 43.6675 32.6961C43.9391 32.5474 44.1397 32.4266 44.3496 32.3213C47.3803 30.7722 50.5715 29.7281 53.9448 29.2602C54.667 29.1611 55.3985 29.1239 56.1237 29.0558C56.2318 29.0465 56.3398 29.0186 56.4478 29C57.2996 29 58.1545 29 59.0063 29H59.0032Z" fill="#24393E"/>
<path d="M37.3838 80.5538C37.8159 80.8946 38.1924 81.1951 38.572 81.4925C40.3497 82.8712 42.2108 84.1198 44.2631 85.0493C44.6798 85.2382 44.7755 85.4582 44.7755 85.8827C44.7631 95.2392 44.7662 104.596 44.7662 113.952C44.7662 114.597 44.8094 115.238 45.0656 115.839C45.6026 117.103 46.5933 117.747 47.9204 117.915C48.192 117.949 48.4667 117.949 48.7413 117.949C70.7157 117.949 92.687 117.949 114.661 117.949C115.294 117.949 115.921 117.906 116.51 117.651C117.782 117.109 118.427 116.105 118.581 114.758C118.612 114.485 118.615 114.209 118.615 113.934C118.615 98.1267 118.615 82.3167 118.615 66.5097V66.0605H87.5822C88.9186 62.3984 89.255 58.6434 88.9896 54.8172C88.7242 50.9878 87.6532 47.3691 86.0885 43.8434H96.4615C96.4615 43.9549 96.4615 44.0727 96.4615 44.1904C96.4615 46.576 96.4121 48.9616 96.4769 51.3441C96.5572 54.3586 97.9923 56.5986 100.684 57.9092C105.109 60.0655 110.316 57.3019 111.131 52.4192C111.208 51.9513 111.217 51.4649 111.22 50.9878C111.229 48.7354 111.223 46.4831 111.223 44.2307V43.8434C111.319 43.831 111.396 43.8124 111.47 43.8124C112.911 43.8248 114.356 43.7783 115.794 43.8651C118.337 44.0169 120.578 44.9618 122.463 46.6937C124.371 48.4442 125.473 50.6315 125.861 53.1813C125.957 53.8134 125.994 54.4609 125.994 55.0991C126 74.6486 126.003 94.1982 125.994 113.745C125.994 117.016 124.902 119.851 122.488 122.1C120.673 123.792 118.504 124.718 116.038 124.938C115.544 124.982 115.044 124.997 114.547 124.997C92.5141 124.997 70.4781 125.003 48.4451 124.997C45.0471 124.997 42.1737 123.739 39.9485 121.128C38.5535 119.495 37.7418 117.583 37.4887 115.449C37.4023 114.711 37.3745 113.965 37.3745 113.224C37.3684 102.47 37.3684 91.7196 37.3684 80.9658C37.3684 80.8481 37.3684 80.7304 37.3684 80.5445L37.3838 80.5538Z" fill="#24393E"/>
<path d="M53.2504 56.4623C53.2782 55.3005 53.7164 54.1294 54.9016 53.3486C55.7781 52.7724 56.7626 52.6949 57.7718 52.825C57.9786 52.8529 58.1051 52.8064 58.2502 52.6701C61.2439 49.8446 64.2407 47.0221 67.2405 44.2028C67.8084 43.6699 68.9195 43.6761 69.4812 44.2059C70.012 44.7047 70.0367 45.6868 69.4966 46.325C68.5059 47.4962 67.4967 48.6518 66.4937 49.8167C64.7931 51.7871 63.0926 53.7576 61.3982 55.7342C61.3303 55.8117 61.2964 55.9511 61.3087 56.0564C61.4599 57.463 61.0927 58.7147 60.2223 59.8238C60.1575 59.9044 60.1081 60.019 60.102 60.1213C59.9137 63.1916 59.7285 66.2588 59.5464 69.3291C59.5001 70.1191 58.5218 70.9494 57.6298 70.9277C57.3984 70.9215 57.1638 70.8937 56.9385 70.8348C56.2564 70.6644 55.9077 70.2492 55.846 69.5459C55.5929 66.646 55.3398 63.7461 55.0991 60.8431C55.0682 60.4745 54.9726 60.2173 54.6207 59.9911C54.3028 59.7867 54.0683 59.4056 53.8677 59.0617C53.4418 58.3274 53.2535 57.5188 53.2473 56.4592L53.2504 56.4623Z" fill="#24393E"/>
<path d="M100.174 45.6682C100.174 43.7319 100.134 41.7955 100.184 39.8622C100.239 37.6068 101.964 36.2405 104.248 36.4356C105.412 36.5348 106.375 37.015 107.004 38.0436C107.396 38.6849 107.544 39.4006 107.547 40.1442C107.551 43.8434 107.554 47.5395 107.547 51.2388C107.547 52.2922 107.254 53.2526 106.458 53.9962C105.551 54.8451 104.44 55.0681 103.261 54.8977C101.347 54.622 100.236 53.3889 100.187 51.4463C100.137 49.5224 100.174 47.5953 100.174 45.6713V45.6682Z" fill="#24393E"/>
<path d="M85.4033 80.8636V73.4992H92.7425V80.8636H85.4033Z" fill="#24393E"/>
<path d="M100.18 73.4868H107.52V80.8636H100.18V73.4868Z" fill="#24393E"/>
<path d="M55.8614 95.7008V88.324H63.2129V95.7008H55.8614Z" fill="#24393E"/>
<path d="M77.987 95.707H70.6416V88.3271H77.987V95.707Z" fill="#24393E"/>
<path d="M85.4095 88.3209H92.7394V95.6946H85.4095V88.3209Z" fill="#24393E"/>
<path d="M100.187 88.3209H107.52V95.6946H100.187V88.3209Z" fill="#24393E"/>
<path d="M63.216 103.149V110.516H55.8614V103.149H63.216Z" fill="#24393E"/>
<path d="M77.9901 103.14V110.516H70.6416V103.14H77.9901Z" fill="#24393E"/>
<path d="M85.4002 110.51V103.143H92.7487V110.51H85.4002Z" fill="#24393E"/>
<path d="M107.529 103.143V110.51H100.18V103.143H107.529Z" fill="#24393E"/>
</svg>
