<svg width="126" height="42" viewBox="0 0 126 42" fill="none" xmlns="http://www.w3.org/2000/svg">
<path d="M0.333333 15C0.333333 20.891 5.10896 25.6667 11 25.6667C16.891 25.6667 21.6667 20.891 21.6667 15C21.6667 9.10896 16.891 4.33333 11 4.33333C5.10896 4.33333 0.333333 9.10896 0.333333 15ZM105.914 16.4142C106.695 15.6332 106.695 14.3668 105.914 13.5858L93.1863 0.857864C92.4052 0.0768158 91.1389 0.0768158 90.3579 0.857864C89.5768 1.63891 89.5768 2.90524 90.3579 3.68629L101.672 15L90.3579 26.3137C89.5768 27.0948 89.5768 28.3611 90.3579 29.1421C91.1389 29.9232 92.4052 29.9232 93.1863 29.1421L105.914 16.4142ZM14.8958 17C16.0004 17 16.8958 16.1046 16.8958 15C16.8958 13.8954 16.0004 13 14.8958 13V17ZM22.6875 13C21.5829 13 20.6875 13.8954 20.6875 15C20.6875 16.1046 21.5829 17 22.6875 17V13ZM30.4792 17C31.5837 17 32.4792 16.1046 32.4792 15C32.4792 13.8954 31.5837 13 30.4792 13V17ZM38.2708 13C37.1663 13 36.2708 13.8954 36.2708 15C36.2708 16.1046 37.1663 17 38.2708 17V13ZM46.0625 17C47.1671 17 48.0625 16.1046 48.0625 15C48.0625 13.8954 47.1671 13 46.0625 13V17ZM53.8542 13C52.7496 13 51.8542 13.8954 51.8542 15C51.8542 16.1046 52.7496 17 53.8542 17V13ZM61.6458 17C62.7504 17 63.6458 16.1046 63.6458 15C63.6458 13.8954 62.7504 13 61.6458 13V17ZM69.4375 13C68.3329 13 67.4375 13.8954 67.4375 15C67.4375 16.1046 68.3329 17 69.4375 17V13ZM77.2292 17C78.3337 17 79.2292 16.1046 79.2292 15C79.2292 13.8954 78.3337 13 77.2292 13V17ZM85.0208 13C83.9163 13 83.0208 13.8954 83.0208 15C83.0208 16.1046 83.9163 17 85.0208 17V13ZM92.8125 17C93.9171 17 94.8125 16.1046 94.8125 15C94.8125 13.8954 93.9171 13 92.8125 13V17ZM100.604 13C99.4996 13 98.6042 13.8954 98.6042 15C98.6042 16.1046 99.4996 17 100.604 17V13ZM11 17H14.8958V13H11V17ZM22.6875 17H30.4792V13H22.6875V17ZM38.2708 17H46.0625V13H38.2708V17ZM53.8542 17H61.6458V13H53.8542V17ZM69.4375 17H77.2292V13H69.4375V17ZM85.0208 17H92.8125V13H85.0208V17ZM100.604 17H104.5V13H100.604V17Z" fill="#24393E"/>
<path d="M25.6667 34C25.6667 36.9455 28.0545 39.3333 31 39.3333C33.9455 39.3333 36.3333 36.9455 36.3333 34C36.3333 31.0545 33.9455 28.6667 31 28.6667C28.0545 28.6667 25.6667 31.0545 25.6667 34ZM125.207 34.7071C125.598 34.3166 125.598 33.6834 125.207 33.2929L118.843 26.9289C118.453 26.5384 117.819 26.5384 117.429 26.9289C117.038 27.3195 117.038 27.9526 117.429 28.3431L123.086 34L117.429 39.6569C117.038 40.0474 117.038 40.6805 117.429 41.0711C117.819 41.4616 118.453 41.4616 118.843 41.0711L125.207 34.7071ZM34.8958 35C35.4481 35 35.8958 34.5523 35.8958 34C35.8958 33.4477 35.4481 33 34.8958 33V35ZM42.6875 33C42.1352 33 41.6875 33.4477 41.6875 34C41.6875 34.5523 42.1352 35 42.6875 35V33ZM50.4792 35C51.0315 35 51.4792 34.5523 51.4792 34C51.4792 33.4477 51.0315 33 50.4792 33V35ZM58.2708 33C57.7185 33 57.2708 33.4477 57.2708 34C57.2708 34.5523 57.7185 35 58.2708 35V33ZM66.0625 35C66.6148 35 67.0625 34.5523 67.0625 34C67.0625 33.4477 66.6148 33 66.0625 33V35ZM73.8542 33C73.3019 33 72.8542 33.4477 72.8542 34C72.8542 34.5523 73.3019 35 73.8542 35V33ZM81.6458 35C82.1981 35 82.6458 34.5523 82.6458 34C82.6458 33.4477 82.1981 33 81.6458 33V35ZM89.4375 33C88.8852 33 88.4375 33.4477 88.4375 34C88.4375 34.5523 88.8852 35 89.4375 35V33ZM97.2292 35C97.7815 35 98.2292 34.5523 98.2292 34C98.2292 33.4477 97.7815 33 97.2292 33V35ZM105.021 33C104.469 33 104.021 33.4477 104.021 34C104.021 34.5523 104.469 35 105.021 35V33ZM112.812 35C113.365 35 113.812 34.5523 113.812 34C113.812 33.4477 113.365 33 112.812 33V35ZM120.604 33C120.052 33 119.604 33.4477 119.604 34C119.604 34.5523 120.052 35 120.604 35V33ZM31 35H34.8958V33H31V35ZM42.6875 35H50.4792V33H42.6875V35ZM58.2708 35H66.0625V33H58.2708V35ZM73.8542 35H81.6458V33H73.8542V35ZM89.4375 35H97.2292V33H89.4375V35ZM105.021 35H112.812V33H105.021V35ZM120.604 35H124.5V33H120.604V35Z" fill="#24393E"/>
</svg>
