<svg width="1440" height="413" viewBox="0 0 1440 413" fill="none" xmlns="http://www.w3.org/2000/svg">
<g clip-path="url(#clip0_657_582)">
<rect width="1440" height="413" fill="white"/>
<rect x="-160" width="1759" height="413" fill="#24393E"/>
<path d="M1598.74 179.056C1602.3 48.5326 1568.6 0 1526.9 0C1500.43 0 1477.57 24.9491 1463.53 66.496C1451.13 21.9027 1430.22 0 1405.73 0C1394.16 0 1383.37 4.7272 1373.84 14.1816H1368.15V413H1374.95V109.461C1379.85 104.524 1385.36 102.108 1391.35 102.108C1412.58 102.108 1424.66 132.362 1424.66 198.122V413H1475.62V208.785C1475.62 136.091 1491.61 102.108 1514.47 102.108C1535.06 102.108 1547.78 132.362 1547.78 198.122V413H1598.74V179.056Z" fill="white"/>
<path d="M1355.68 19.3815H1333V412.947H1355.68V19.3815Z" fill="white"/>
<path d="M105.742 179.056C109.302 48.5326 75.6024 0 33.8975 0C7.43216 0 -15.4273 24.9491 -29.4651 66.496C-41.87 21.9027 -62.7791 0 -87.2714 0C-98.8373 0 -109.632 4.7272 -119.157 14.1816H-124.849V413H-118.046V109.461C-113.147 104.524 -107.636 102.108 -101.649 102.108C-80.4227 102.108 -68.3353 132.362 -68.3353 198.122V413H-17.3776V208.785C-17.3776 136.091 -1.38962 102.108 21.4699 102.108C42.0616 102.108 54.784 132.362 54.784 198.122V413H105.742V179.056Z" fill="#FFC002"/>
<path d="M-137.322 19.3815H-160V412.947H-137.322V19.3815Z" fill="#FFC002"/>
</g>
<defs>
<clipPath id="clip0_657_582">
<rect width="1440" height="413" fill="white"/>
</clipPath>
</defs>
</svg>
