<svg width="156" height="155" viewBox="0 0 156 155" fill="none" xmlns="http://www.w3.org/2000/svg">
<circle cx="77.7446" cy="77.5" r="77.5" fill="#FFC000"/>
<path d="M140.245 92.8888C139.655 95.1588 139.274 97.4816 138.424 99.6461C137.766 101.335 136.535 102.796 135.616 104.397C135.287 104.96 134.975 105.647 134.958 106.28C134.888 109.712 134.923 113.143 134.923 116.575V118H118.784V110.592H65.7924V117.982H49.6019C49.6019 117.507 49.6019 117.032 49.6019 116.557C49.6019 113.09 49.6192 109.624 49.5672 106.139C49.5672 105.576 49.3418 104.925 48.9951 104.503C45.4415 100.174 44.1761 95.1412 44.3668 89.6333C44.4881 85.7795 45.3722 82.1193 47.4177 78.811C48.7698 76.5937 50.5033 74.7636 52.7221 73.4438C53.5368 72.9687 53.9008 72.388 54.0569 71.4202C55.0103 65.5075 56.9171 59.982 60.8347 55.3539C64.0069 51.6057 67.9246 49.67 72.8996 49.7052C85.5539 49.8108 98.2255 49.8988 110.88 49.67C117.727 49.5468 122.39 52.7319 125.874 58.2926C128.353 62.252 129.723 66.6337 130.503 71.2266C130.624 71.8777 130.901 72.7575 131.404 73.0567C136.552 76.2594 139.083 81.0634 139.985 86.9409C140.054 87.3456 140.158 87.7328 140.245 88.1375V92.8888ZM102.819 70.6811C103.097 69.4317 103.27 68.323 103.582 67.2848C104.951 62.8151 109.406 60.1051 114.347 60.6859C118.49 61.161 122.286 65.1028 122.598 69.3965C122.667 70.3995 122.997 70.8218 123.95 70.8043C124.383 70.8043 124.834 70.8043 125.285 70.8043C125.285 70.6635 125.354 70.5403 125.32 70.4347C124.47 66.4401 123.083 62.6567 120.622 59.3837C118.438 56.4801 115.733 54.6324 111.851 54.6676C98.6589 54.7732 85.4672 54.738 72.2929 54.6852C69.5887 54.6852 67.3525 55.6531 65.5324 57.5711C64.475 58.6974 63.5042 59.9468 62.6895 61.2666C60.904 64.1877 59.812 67.3904 59.1706 70.6987H102.819V70.6811ZM67.2658 90.5307C67.2658 86.9585 64.4403 84.0726 60.9387 84.0374C57.4371 84.0022 54.4902 87.0113 54.5249 90.5835C54.5596 94.1206 57.4718 97.0417 60.9387 97.0065C64.4403 96.9889 67.2832 94.0854 67.2832 90.5307H67.2658ZM130.017 90.5307C130.017 86.9585 127.209 84.0726 123.69 84.0374C120.188 84.0022 117.242 86.9937 117.276 90.5835C117.294 94.1206 120.206 97.0417 123.673 97.0241C127.174 97.0065 130 94.103 130 90.5483L130.017 90.5307ZM92.245 90.2844C98.0695 90.2844 103.877 90.2844 109.701 90.2844C110.186 90.2844 110.776 90.39 111.14 90.1612C111.66 89.8268 112.301 89.2461 112.336 88.7358C112.371 88.2255 111.799 87.5568 111.313 87.1697C110.984 86.9057 110.377 86.9937 109.892 86.9937C98.1735 86.9937 86.4553 86.9937 74.7371 86.9937C74.4944 86.9937 74.2517 86.9937 74.009 86.9937C72.8303 87.0641 72.0675 87.7328 72.1369 88.683C72.2235 89.7917 72.9169 90.2492 73.9397 90.2844C74.3037 90.2844 74.6677 90.2844 75.0318 90.2844C80.7695 90.2844 86.5073 90.2844 92.245 90.2844ZM92.3664 95.9507C98.1908 95.9507 103.998 95.9507 109.822 95.9507C110.273 95.9507 110.81 96.0563 111.14 95.8451C111.642 95.5283 112.301 95.0004 112.319 94.5253C112.353 93.9798 111.851 93.3111 111.417 92.8712C111.157 92.6248 110.568 92.66 110.134 92.66C98.2602 92.66 86.3686 92.66 74.4944 92.66C74.061 92.66 73.4716 92.6072 73.2116 92.8536C72.7436 93.2759 72.1715 93.9446 72.2235 94.4549C72.2756 94.9652 72.9689 95.5107 73.489 95.8451C73.8183 96.0563 74.3557 95.9331 74.8064 95.9331C80.6655 95.9331 86.5246 95.9331 92.3837 95.9331L92.3664 95.9507ZM119.426 70.4875C119.426 66.7041 116.392 63.7478 112.648 63.8534C109.094 63.9413 106.13 67.0385 106.338 70.4875H119.426Z" fill="#24393E"/>
<path d="M50.2259 54.0165L33.0473 37L15.2446 55.3891L32.4059 72.212C32.8219 72.6168 33.3593 72.8279 33.9314 72.7751L50.4339 71.7369L50.8326 55.5299C50.85 54.9668 50.6246 54.4212 50.2259 54.0165ZM42.3907 60.8266C42.2346 61.0554 42.044 61.2842 41.8879 61.4953C41.6799 61.7065 41.4893 61.9001 41.2986 62.0936C41.0386 62.2872 40.7785 62.4984 40.5012 62.6919C39.4438 63.4134 38.265 63.8006 36.9996 63.9237C35.2661 64.0645 33.6193 63.7302 32.0592 62.9559C31.9205 62.8855 31.8339 62.9031 31.7472 63.0087L29.771 65.0148C29.1123 64.3637 28.4709 63.7126 27.8296 63.0439C28.4016 62.4632 28.9737 61.8825 29.5457 61.2842C29.2337 60.9674 28.9216 60.6507 28.6096 60.3163C28.0376 60.897 27.4655 61.4777 26.8762 62.076L24.9174 60.0875C24.9174 60.0875 25.004 59.982 25.056 59.9468C25.6627 59.3133 26.2868 58.6798 26.9108 58.0639C26.9975 57.9759 27.0322 57.9055 26.9628 57.7823C26.2348 56.269 25.9054 54.6852 25.9921 53.0135C26.0788 51.5177 26.5468 50.1451 27.4309 48.9133C27.5522 48.7373 27.6909 48.5614 27.8296 48.3854C28.0202 48.1918 28.2109 48.0159 28.3843 47.8223C28.7136 47.5759 29.0257 47.312 29.355 47.1008C30.4124 46.3969 31.5738 46.0274 32.8393 45.9218C34.1394 45.7986 35.4221 46.0098 36.6876 46.4497C36.3755 47.3296 36.0635 48.1918 35.7688 49.0893C35.5955 49.0365 35.4221 48.9837 35.2661 48.9309C33.966 48.5966 32.7006 48.579 31.4525 49.1245C30.1697 49.7052 29.355 50.673 28.9563 52.028C28.5923 53.2774 28.7136 54.5268 29.1297 55.741C29.1297 55.7586 29.147 55.7586 29.1643 55.7762C30.6204 54.2981 32.0939 52.8199 33.5673 51.3241C34.2087 51.9928 34.8501 52.6439 35.5088 53.3126C33.8794 54.9668 32.2326 56.6385 30.5684 58.3102C30.8978 58.6446 31.2098 58.9437 31.5218 59.2781C33.1686 57.6063 34.8154 55.9522 36.4622 54.2805L38.4037 56.2514C36.9476 57.7471 35.4741 59.2253 33.9834 60.7386C34.226 60.8266 34.4341 60.897 34.6594 60.9498C36.0635 61.3018 37.4503 61.249 38.733 60.4923C40.0331 59.7532 40.7265 58.5742 40.9519 57.1136C41.0906 56.1282 40.9692 55.1603 40.6745 54.2277C40.6572 54.1749 40.6572 54.1221 40.6225 54.0517C41.4893 53.735 42.356 53.4358 43.24 53.1015C43.3614 53.5414 43.5001 53.9637 43.5867 54.4037C43.7254 55.1075 43.7948 55.829 43.7774 56.5505C43.7081 58.0991 43.2921 59.542 42.3907 60.8266Z" fill="#24393E"/>
</svg>
