<svg width="437" height="540" viewBox="0 0 437 540" fill="none" xmlns="http://www.w3.org/2000/svg">
<path d="M418.92 55.4242L221.791 5.79654C213.859 3.79968 205.81 8.61093 203.813 16.5428L175.85 127.617C173.853 135.549 178.664 143.598 186.596 145.594L383.725 195.222C391.657 197.219 399.706 192.408 401.703 184.476L429.666 73.4017C431.663 65.4699 426.851 57.4211 418.92 55.4242Z" fill="#999999"/>
<path d="M401.185 85.08C407.762 85.8889 413.751 81.2122 414.56 74.6343C415.368 68.0565 410.692 62.0683 404.114 61.2594C397.536 60.4505 391.548 65.1272 390.739 71.705C389.93 78.2829 394.607 84.271 401.185 85.08Z" stroke="#E6E6E6" stroke-miterlimit="10"/>
<path d="M386.633 81.4166C393.211 82.2255 399.199 77.5488 400.008 70.9709C400.817 64.3931 396.14 58.4049 389.562 57.596C382.984 56.7871 376.996 61.4638 376.187 68.0416C375.378 74.6195 380.055 80.6077 386.633 81.4166Z" fill="#CCCCCC"/>
<path d="M333.989 72.5672L219.56 43.7593L217.606 51.5172L332.036 80.3251L333.989 72.5672Z" fill="#CCCCCC"/>
<path d="M389.989 161.951L203.799 115.077L202.822 118.956L389.013 165.83L389.989 161.951Z" fill="#CCCCCC"/>
<path d="M386.945 169.437L309.366 149.906L308.389 153.785L385.968 173.316L386.945 169.437Z" fill="#CCCCCC"/>
<path d="M244.257 68.5413L215.165 61.2172L212.724 70.9146L241.816 78.2387L244.257 68.5413Z" fill="#CCCCCC"/>
<path d="M212.48 71.8809L226.541 75.4208C228.413 75.892 229.552 77.7978 229.081 79.6694C228.61 81.541 226.704 82.6802 224.832 82.209L210.771 78.669L212.48 71.8809Z" fill="#CCCCCC"/>
<path d="M214.037 99.0271L215.517 99.4081L216.908 93.809L215.446 93.4404C215.308 93.4026 215.205 93.3291 215.138 93.2101C215.07 93.0911 215.044 92.9674 215.079 92.8415C215.116 92.7057 215.189 92.6047 215.308 92.5399C215.428 92.475 215.552 92.4509 215.68 92.4874L218.098 93.1094L216.474 99.6616L217.441 99.9064L217.928 97.9326C217.963 97.8067 218.036 97.7058 218.156 97.631C218.276 97.5661 218.401 97.5421 218.528 97.5786C218.666 97.6164 218.77 97.6898 218.837 97.8088C218.904 97.9279 218.93 98.0516 218.895 98.1775L218.282 100.626C218.245 100.762 218.173 100.863 218.053 100.928C217.934 100.993 217.809 101.017 217.681 100.981L213.791 99.9887C213.653 99.9509 213.56 99.8787 213.483 99.7584C213.416 99.6394 213.389 99.5156 213.426 99.3799C213.461 99.254 213.534 99.153 213.653 99.0881C213.773 99.0232 213.896 99.0091 214.025 99.0357L214.037 99.0271Z" fill="black"/>
<path d="M227.072 103.331L222.691 102.216L223.503 98.9416C223.564 98.6788 223.72 98.4782 223.96 98.3386C224.2 98.199 224.448 98.1608 224.714 98.2351L227.644 98.9831L228.22 96.6708L224.778 95.7867C224.641 95.7489 224.537 95.6755 224.47 95.5565C224.403 95.4375 224.387 95.3151 224.412 95.188C224.448 95.0523 224.521 94.9514 224.63 94.8852C224.74 94.8191 224.874 94.7963 225.012 94.8341L228.454 95.7182C228.721 95.7826 228.926 95.9394 229.072 96.1687C229.217 96.4079 229.259 96.654 229.187 96.9155L228.611 99.2278C228.548 99.5005 228.393 99.7011 228.154 99.8308C227.914 99.9704 227.667 99.9988 227.4 99.9344L224.47 99.1864L223.891 101.518L227.314 102.39C227.442 102.427 227.545 102.5 227.623 102.62C227.7 102.74 227.716 102.863 227.681 102.989C227.645 103.124 227.572 103.225 227.452 103.29C227.333 103.355 227.208 103.379 227.08 103.343L227.072 103.331Z" fill="black"/>
<path d="M238.542 99.2543L238.099 101.032C237.999 101.451 237.781 101.753 237.464 101.943C237.654 102.309 237.715 102.658 237.623 103.007L237.161 104.863C237.1 105.125 236.944 105.326 236.705 105.456C236.466 105.585 236.218 105.624 235.951 105.559L232.548 104.69C232.41 104.652 232.317 104.58 232.239 104.46C232.172 104.341 232.146 104.217 232.181 104.091C232.217 103.956 232.29 103.855 232.41 103.79C232.529 103.725 232.654 103.701 232.782 103.738L236.175 104.605L236.637 102.75C236.673 102.614 236.647 102.49 236.58 102.371C236.513 102.252 236.41 102.179 236.272 102.141L234.329 101.64C234.191 101.602 234.088 101.529 234.019 101.42C233.951 101.311 233.926 101.177 233.962 101.042C233.999 100.906 234.071 100.805 234.191 100.74C234.31 100.675 234.435 100.651 234.563 100.688L236.516 101.19C236.643 101.226 236.768 101.202 236.888 101.137C237.007 101.072 237.08 100.971 237.116 100.836L237.576 98.9997L234.134 98.1155C233.996 98.0777 233.893 98.0043 233.825 97.8853C233.758 97.7664 233.732 97.6427 233.767 97.5168C233.803 97.3811 233.876 97.2802 233.996 97.2153C234.115 97.1505 234.24 97.1264 234.368 97.1629L237.81 98.0471C238.077 98.1115 238.282 98.2682 238.428 98.4975C238.572 98.7368 238.604 98.9816 238.544 99.2345L238.542 99.2543Z" fill="black"/>
<path d="M244.681 107.261L245.167 105.286L242.262 104.541L243.401 99.9699C243.437 99.8341 243.51 99.733 243.63 99.6681C243.751 99.5933 243.874 99.5791 244.012 99.6169C244.14 99.6535 244.244 99.727 244.311 99.8461C244.379 99.9651 244.405 100.089 244.368 100.225L243.474 103.844L245.402 104.332L246.096 101.551C246.132 101.415 246.205 101.314 246.325 101.249C246.445 101.174 246.569 101.16 246.698 101.187C246.828 101.213 246.93 101.297 247.007 101.417C247.075 101.536 247.101 101.66 247.065 101.796L246.371 104.577C246.509 104.615 246.612 104.689 246.68 104.808C246.747 104.927 246.773 105.051 246.738 105.176C246.703 105.302 246.629 105.413 246.509 105.478C246.389 105.543 246.264 105.567 246.136 105.531L245.637 107.524C245.601 107.66 245.528 107.761 245.408 107.826C245.288 107.891 245.163 107.915 245.035 107.878C244.897 107.841 244.804 107.768 244.727 107.648C244.659 107.529 244.633 107.405 244.668 107.279L244.681 107.261Z" fill="black"/>
<path d="M262.13 111.131L264.359 111.698L264.938 109.366L262.028 108.621L263.073 104.403L266.466 105.271C266.594 105.308 266.697 105.381 266.774 105.501C266.842 105.62 266.868 105.744 266.833 105.87C266.796 106.006 266.723 106.107 266.604 106.171C266.485 106.236 266.36 106.26 266.232 106.224L263.816 105.602L263.238 107.924L265.171 108.424C265.428 108.487 265.633 108.643 265.777 108.883C265.922 109.122 265.964 109.368 265.904 109.621L265.325 111.953C265.263 112.216 265.108 112.416 264.879 112.547C264.65 112.678 264.391 112.725 264.125 112.651L261.896 112.083C261.699 112.028 261.497 111.932 261.292 111.775L260.638 111.29C260.46 111.156 260.399 110.988 260.455 110.765C260.492 110.629 260.565 110.528 260.674 110.462C260.783 110.396 260.908 110.372 261.026 110.407C261.125 110.43 261.229 110.493 261.341 110.578L261.911 111.002C261.974 111.07 262.051 111.11 262.13 111.131Z" fill="black"/>
<path d="M271.846 106.618L272.33 106.741C272.467 106.778 272.571 106.852 272.638 106.971C272.705 107.09 272.731 107.214 272.696 107.34C272.66 107.475 272.588 107.566 272.468 107.641C272.348 107.706 272.223 107.73 272.095 107.694L271.319 110.834L274.715 111.702C274.843 111.739 274.946 111.812 275.014 111.931C275.081 112.05 275.107 112.174 275.071 112.31L274.457 114.759C274.421 114.894 274.348 114.995 274.229 115.06C274.109 115.125 273.984 115.149 273.846 115.111L269.977 114.122C269.839 114.084 269.736 114.011 269.668 113.892C269.591 113.771 269.575 113.649 269.6 113.522L271.225 106.97C271.261 106.834 271.334 106.733 271.453 106.668C271.573 106.603 271.698 106.579 271.836 106.617L271.846 106.618ZM271.065 111.784L270.695 113.292L273.607 114.037L273.977 112.53L271.065 111.784Z" fill="black"/>
<path d="M280.452 109.73L280.551 109.321C280.587 109.185 280.66 109.084 280.78 109.019C280.899 108.955 281.024 108.93 281.152 108.967L285.526 110.081L284.796 112.997C284.758 113.153 284.663 113.261 284.523 113.333L282.377 114.371L281.833 116.578C281.797 116.714 281.724 116.815 281.604 116.88C281.483 116.955 281.36 116.969 281.231 116.942C281.102 116.916 280.99 116.831 280.922 116.712C280.845 116.592 280.829 116.469 280.854 116.342L281.452 113.941C281.494 113.756 281.589 113.638 281.73 113.566L283.874 112.537L284.316 110.768L281.404 110.023C281.272 110.277 281.068 110.371 280.821 110.309C280.693 110.272 280.59 110.199 280.513 110.079C280.445 109.96 280.419 109.836 280.454 109.71L280.452 109.73Z" fill="black"/>
<path d="M288.405 117.731L288.982 115.418C289.043 115.155 289.198 114.964 289.438 114.825C289.678 114.685 289.925 114.657 290.192 114.721L290.887 111.922C290.924 111.786 290.996 111.685 291.106 111.619C291.215 111.553 291.35 111.53 291.488 111.568L293.452 112.071C293.59 112.109 293.693 112.182 293.76 112.301C293.828 112.42 293.854 112.544 293.819 112.67L293.123 115.469C293.38 115.532 293.586 115.689 293.731 115.919C293.877 116.148 293.918 116.404 293.847 116.666L293.267 118.999C293.206 119.261 293.051 119.452 292.811 119.592C292.571 119.731 292.323 119.77 292.067 119.697L289.136 118.948C288.869 118.884 288.654 118.726 288.52 118.478C288.376 118.229 288.344 117.984 288.403 117.741L288.405 117.731ZM289.959 115.664L289.38 117.997L292.311 118.745L292.891 116.412L289.959 115.664ZM291.738 112.643L291.159 114.966L292.156 115.224L292.734 112.902L291.738 112.643Z" fill="black"/>
<path d="M311.283 124.518L310.799 124.396C310.671 124.359 310.568 124.286 310.491 124.165C310.423 124.046 310.397 123.923 310.432 123.797C310.469 123.661 310.541 123.56 310.661 123.495C310.78 123.43 310.905 123.406 311.033 123.443L311.809 120.302L308.414 119.434C308.286 119.398 308.182 119.324 308.105 119.204C308.038 119.085 308.012 118.961 308.047 118.835L308.662 116.367C308.698 116.241 308.77 116.14 308.89 116.075C309.009 116.01 309.134 115.986 309.262 116.022L313.142 117.013C313.27 117.049 313.373 117.123 313.45 117.243C313.518 117.362 313.544 117.486 313.509 117.612L311.884 124.164C311.847 124.3 311.775 124.401 311.665 124.467C311.546 124.532 311.421 124.556 311.293 124.519L311.283 124.518ZM312.063 119.352L312.433 117.855L309.511 117.108L309.141 118.605L312.063 119.352Z" fill="black"/>
<path d="M316.476 124.848L317.885 119.173C317.945 118.92 318.089 118.728 318.318 118.597C318.547 118.466 318.785 118.427 319.042 118.49L322.051 119.258C322.298 119.32 322.494 119.465 322.63 119.693C322.766 119.921 322.799 120.156 322.739 120.409L321.33 126.084C321.269 126.337 321.125 126.529 320.896 126.66C320.667 126.791 320.429 126.831 320.173 126.758L317.174 125.991C316.918 125.928 316.721 125.782 316.586 125.554C316.45 125.326 316.417 125.091 316.477 124.838L316.476 124.848ZM320.386 125.812L321.776 120.215L318.836 119.466L317.446 125.063L320.386 125.812Z" fill="black"/>
<path d="M325.828 127.197L327.238 121.522C327.298 121.269 327.442 121.077 327.671 120.946C327.9 120.815 328.138 120.776 328.395 120.839L331.404 121.607C331.651 121.669 331.847 121.815 331.983 122.043C332.118 122.271 332.162 122.507 332.092 122.759L330.683 128.433C330.622 128.686 330.478 128.878 330.249 129.009C330.02 129.14 329.782 129.18 329.526 129.107L326.537 128.341C326.281 128.278 326.074 128.131 325.949 127.904C325.813 127.676 325.779 127.441 325.84 127.188L325.828 127.197ZM329.739 128.162L331.129 122.564L328.189 121.815L326.799 127.412L329.739 128.162Z" fill="black"/>
<path d="M335.181 129.556L336.59 123.881C336.65 123.628 336.794 123.436 337.023 123.305C337.252 123.174 337.49 123.135 337.747 123.198L340.756 123.966C341.003 124.028 341.199 124.174 341.335 124.402C341.471 124.63 341.514 124.866 341.444 125.118L340.035 130.792C339.974 131.045 339.83 131.237 339.601 131.368C339.372 131.499 339.134 131.539 338.878 131.466L335.88 130.699C335.623 130.636 335.426 130.49 335.291 130.262C335.155 130.034 335.122 129.799 335.182 129.546L335.181 129.556ZM339.091 130.521L340.481 124.924L337.541 124.174L336.151 129.771L339.091 130.521Z" fill="black"/>
<path d="M354.374 134.36L355.854 134.741L357.245 129.142L355.783 128.773C355.645 128.735 355.552 128.663 355.475 128.543C355.407 128.424 355.381 128.3 355.416 128.174C355.452 128.048 355.526 127.938 355.645 127.873C355.765 127.808 355.889 127.784 356.017 127.82L358.435 128.442L356.811 134.994L357.778 135.239L358.265 133.266C358.3 133.14 358.373 133.039 358.493 132.964C358.613 132.899 358.738 132.875 358.866 132.911C359.003 132.949 359.107 133.023 359.174 133.142C359.241 133.261 359.267 133.384 359.232 133.51L358.619 135.959C358.583 136.095 358.51 136.196 358.4 136.262C358.281 136.327 358.156 136.351 358.018 136.313L354.128 135.322C353.991 135.284 353.897 135.212 353.82 135.091C353.753 134.972 353.737 134.85 353.763 134.713C353.798 134.587 353.871 134.486 353.98 134.42C354.1 134.355 354.223 134.341 354.353 134.367L354.374 134.36Z" fill="black"/>
<path d="M367.418 138.666L363.039 137.541L363.851 134.266C363.912 134.003 364.068 133.802 364.308 133.663C364.548 133.523 364.796 133.485 365.052 133.558L367.981 134.306L368.558 131.994L365.116 131.11C364.978 131.072 364.875 130.998 364.808 130.879C364.74 130.76 364.724 130.638 364.749 130.511C364.775 130.384 364.859 130.274 364.968 130.208C365.087 130.143 365.212 130.119 365.35 130.157L368.792 131.041C369.059 131.106 369.264 131.262 369.41 131.492C369.554 131.731 369.597 131.977 369.525 132.238L368.948 134.551C368.886 134.824 368.73 135.024 368.491 135.154C368.251 135.293 368.004 135.322 367.738 135.257L364.808 134.509L364.229 136.841L367.652 137.713C367.78 137.75 367.883 137.823 367.96 137.943C368.038 138.063 368.054 138.186 368.019 138.312C367.982 138.447 367.911 138.538 367.79 138.613C367.671 138.678 367.546 138.702 367.418 138.666Z" fill="black"/>
<path d="M378.877 134.597L378.434 136.375C378.334 136.794 378.117 137.086 377.799 137.286C377.99 137.652 378.05 138 377.958 138.35L377.496 140.205C377.435 140.468 377.28 140.659 377.04 140.799C376.8 140.938 376.552 140.976 376.287 140.902L372.883 140.033C372.745 139.995 372.652 139.923 372.575 139.803C372.508 139.684 372.481 139.56 372.517 139.434C372.552 139.308 372.626 139.198 372.745 139.133C372.864 139.068 372.989 139.044 373.117 139.08L376.51 139.948L376.973 138.092C377.009 137.957 376.983 137.833 376.915 137.714C376.848 137.595 376.745 137.522 376.607 137.484L374.674 136.984C374.536 136.947 374.433 136.873 374.365 136.764C374.296 136.655 374.271 136.521 374.308 136.386C374.344 136.25 374.416 136.159 374.536 136.084C374.656 136.019 374.78 135.995 374.908 136.032L376.861 136.534C376.989 136.57 377.114 136.546 377.233 136.481C377.352 136.417 377.425 136.316 377.462 136.18L377.921 134.344L374.479 133.46C374.341 133.422 374.248 133.35 374.171 133.229C374.103 133.111 374.077 132.987 374.113 132.861C374.148 132.735 374.222 132.624 374.341 132.56C374.46 132.495 374.585 132.471 374.713 132.507L378.155 133.391C378.422 133.456 378.627 133.612 378.773 133.842C378.918 134.081 378.95 134.326 378.89 134.579L378.877 134.597Z" fill="black"/>
<path d="M381.963 141.334L383.372 135.659C383.432 135.406 383.577 135.214 383.805 135.083C384.034 134.952 384.273 134.913 384.529 134.976L387.538 135.744C387.785 135.806 387.981 135.952 388.117 136.18C388.253 136.408 388.296 136.644 388.226 136.896L386.817 142.57C386.757 142.823 386.612 143.015 386.383 143.146C386.155 143.277 385.916 143.317 385.661 143.244L382.662 142.477C382.405 142.414 382.209 142.268 382.073 142.04C381.937 141.812 381.904 141.577 381.964 141.324L381.963 141.334ZM385.873 142.299L387.263 136.702L384.323 135.952L382.933 141.549L385.873 142.299Z" fill="black"/>
<path d="M374.639 219.011C373.821 220.745 372.789 222.179 371.436 223.02C372.773 222.228 373.825 220.795 374.665 219.045C374.657 219.034 374.648 219.023 374.629 219.01L374.639 219.011Z" fill="black"/>
<path d="M331.552 453.743C334.282 452.203 401.892 366.503 430.452 393.653C459.012 420.793 344.102 488.733 344.102 488.733" fill="#FFC000"/>
<g opacity="0.2">
<path d="M350.913 468.133C368.563 455.743 383.013 439.423 397.293 423.263L350.913 468.133Z" fill="#F4EBDC"/>
<path d="M350.913 468.133C368.563 455.743 383.013 439.423 397.293 423.263" stroke="#36252D" stroke-miterlimit="10"/>
</g>
<path opacity="0.2" d="M293.502 413.773C296.502 410.773 353.502 274.773 400.502 299.773C447.502 324.773 322.502 454.773 322.502 454.773" fill="#F4EBDC"/>
<path d="M323.902 425.503C342.402 402.993 355.302 376.523 368.042 350.313" stroke="#2A1D27" stroke-miterlimit="10"/>
<path d="M331.552 453.743C334.282 452.203 401.892 366.503 430.452 393.653C459.012 420.793 344.102 488.733 344.102 488.733" fill="#FFC000"/>
<g opacity="0.2">
<path d="M333.5 475C351.15 462.61 383.013 439.423 397.293 423.263L333.5 475Z" fill="#F4EBDC"/>
<path d="M333.5 475C351.15 462.61 383.013 439.423 397.293 423.263" stroke="#36252D" stroke-width="3" stroke-miterlimit="10"/>
</g>
<path d="M293.502 413.773C296.502 410.773 353.502 274.773 400.502 299.773C447.502 324.773 322.502 454.773 322.502 454.773" fill="#FFC000"/>
<g opacity="0.2">
<path d="M323.902 425.503C342.402 402.993 355.302 376.523 368.042 350.313L323.902 425.503Z" fill="#F4EBDC"/>
<path d="M323.902 425.503C342.402 402.993 355.302 376.523 368.042 350.313" stroke="#36252D" stroke-width="3" stroke-miterlimit="10"/>
</g>
<path d="M392.343 446.193C394.963 441.753 396.343 436.343 394.933 431.383C394.313 429.233 393.193 427.213 392.863 425.003C392.023 419.273 396.543 414.293 400.713 410.273C402.693 414.923 404.213 420.003 403.403 425.003C402.983 427.573 401.973 429.993 400.963 432.393C398.533 438.163 396.113 443.933 393.683 449.693C398.813 446.283 406.403 447.283 410.463 451.923C403.363 456.843 394.403 461.953 386.633 458.183C380.883 465.103 375.133 472.023 369.383 478.953C375.933 477.973 382.933 481.173 386.483 486.763C379.383 491.883 368.633 491.093 362.363 484.983C358.183 488.733 354.003 492.493 349.823 496.243C355.553 497.953 360.723 501.473 364.413 506.173C359.973 505.443 355.913 509.433 351.413 509.223C348.213 509.073 345.533 506.853 342.563 505.683C339.593 504.513 335.243 505.033 334.453 508.143C336.853 504.023 340.063 500.383 343.853 497.493C346.143 495.743 348.883 493.903 349.213 491.043C349.403 489.383 348.713 487.763 348.203 486.163C346.003 479.253 347.443 471.293 351.923 465.583C356.063 471.573 357.593 479.293 356.053 486.413C364.343 480.723 371.603 473.543 377.383 465.313C369.443 459.383 368.173 446.373 374.813 439.013C378.203 444.613 379.733 451.963 383.213 457.063C386.613 453.953 389.993 450.213 392.363 446.203L392.343 446.193Z" fill="#24393E"/>
<path d="M305.762 99.7734H153.242C135.713 99.7734 121.502 113.984 121.502 131.513V503.033C121.502 520.563 135.713 534.773 153.242 534.773H305.762C323.292 534.773 337.502 520.563 337.502 503.033V131.513C337.502 113.984 323.292 99.7734 305.762 99.7734Z" fill="#E6E6E6" stroke="#333333" stroke-width="10" stroke-miterlimit="10"/>
<rect x="129.487" y="124.79" width="199" height="184.596" rx="9" fill="#FFC000"/>
<rect x="148.313" y="186.933" width="163.749" height="24.259" rx="1.89524" fill="white"/>
<rect x="148.313" y="186.933" width="24.6381" height="24.259" rx="1.89524" fill="#BCB9B9"/>
<path d="M155.897 199.332C155.896 198.031 155.896 196.731 155.897 195.43C155.897 195.186 155.995 195.075 156.24 195.061C156.39 195.052 156.542 195.057 156.693 195.057C158.181 195.056 159.669 195.056 161.157 195.057C161.219 195.057 161.281 195.059 161.343 195.064C161.458 195.072 161.514 195.127 161.517 195.244C161.522 195.372 161.521 195.499 161.519 195.626C161.517 195.756 161.454 195.824 161.322 195.827C161.103 195.834 160.884 195.835 160.664 195.835C159.475 195.835 158.287 195.832 157.098 195.831C157.047 195.831 156.997 195.832 156.947 195.839C156.776 195.862 156.669 195.976 156.662 196.148C156.657 196.245 156.66 196.343 156.66 196.44C156.661 198.434 156.659 200.428 156.661 202.421C156.661 202.489 156.667 202.559 156.685 202.623C156.72 202.745 156.835 202.827 156.976 202.83C157.142 202.835 157.308 202.83 157.475 202.83C159.378 202.831 161.28 202.832 163.184 202.833C163.24 202.833 163.296 202.833 163.352 202.831C163.537 202.823 163.665 202.702 163.674 202.517C163.681 202.354 163.677 202.191 163.677 202.029C163.676 200.784 163.675 199.54 163.674 198.296C163.674 198.005 163.702 197.977 163.994 197.977C164.062 197.977 164.131 197.975 164.198 197.977C164.385 197.979 164.437 198.029 164.437 198.214C164.437 199.269 164.437 200.323 164.437 201.378C164.437 202.001 164.437 202.623 164.438 203.245C164.438 203.466 164.336 203.584 164.119 203.601C163.983 203.611 163.846 203.609 163.71 203.609C161.268 203.609 158.825 203.609 156.383 203.61C156.318 203.61 156.252 203.608 156.188 203.6C156.01 203.579 155.902 203.465 155.899 203.287C155.895 203.05 155.898 202.813 155.898 202.576C155.898 201.494 155.897 200.413 155.897 199.332L155.897 199.332Z" fill="black"/>
<path d="M163.411 195.181C163.718 195.491 164.014 195.789 164.315 196.092C164.295 196.114 164.272 196.141 164.247 196.165C163.276 197.134 162.306 198.104 161.335 199.073C161.286 199.121 161.236 199.167 161.194 199.221C161.152 199.276 161.117 199.273 161.071 199.228C160.955 199.11 160.836 198.993 160.719 198.877C160.578 198.737 160.437 198.597 160.297 198.457C160.219 198.38 160.22 198.375 160.3 198.296C161.26 197.336 162.22 196.378 163.18 195.418C163.258 195.341 163.333 195.263 163.411 195.182L163.411 195.181Z" fill="black"/>
<path d="M164.586 195.845C164.276 195.528 163.983 195.229 163.682 194.921C163.722 194.879 163.779 194.819 163.836 194.761C164.013 194.583 164.19 194.404 164.368 194.226C164.488 194.105 164.628 194.1 164.753 194.219C164.927 194.388 165.098 194.56 165.268 194.733C165.404 194.872 165.408 194.993 165.272 195.135C165.086 195.329 164.891 195.515 164.702 195.707C164.66 195.749 164.625 195.797 164.586 195.845L164.586 195.845Z" fill="black"/>
<path d="M160.872 199.525C160.432 199.671 159.996 199.816 159.559 199.962C159.552 199.955 159.547 199.948 159.54 199.941C159.683 199.51 159.826 199.078 159.969 198.647C160.041 198.664 160.745 199.346 160.872 199.525Z" fill="black"/>
<path d="M149.995 183.699L149.994 178.369L151.025 178.369L151.026 183.698L149.995 183.699ZM150.753 183.698L150.753 182.789L153.702 182.788L153.702 183.698L150.753 183.698ZM150.753 181.417L150.753 180.537L153.436 180.537L153.437 181.416L150.753 181.417ZM150.753 179.279L150.752 178.369L153.664 178.369L153.664 179.278L150.753 179.279ZM154.556 183.698L154.555 178.368L155.275 178.368L155.586 179.399L155.587 183.698L154.556 183.698ZM158.24 183.697L155.078 179.604L155.275 178.368L158.437 182.462L158.24 183.697ZM158.24 183.697L157.944 182.697L157.943 178.368L158.982 178.368L158.983 183.697L158.24 183.697ZM161.383 183.697L161.382 178.481L162.42 178.481L162.421 183.697L161.383 183.697ZM159.684 179.285L159.684 178.368L164.119 178.367L164.119 179.284L159.684 179.285ZM164.831 183.696L164.831 178.367L165.862 178.367L165.862 183.696L164.831 183.696ZM165.589 183.696L165.589 182.786L168.538 182.786L168.538 183.696L165.589 183.696ZM165.589 181.414L165.589 180.535L168.273 180.534L168.273 181.414L165.589 181.414ZM165.589 179.276L165.589 178.367L168.5 178.366L168.5 179.276L165.589 179.276ZM170.15 181.467L170.149 180.663L171.385 180.663C171.638 180.663 171.832 180.599 171.969 180.473C172.11 180.342 172.181 180.162 172.181 179.935C172.181 179.728 172.11 179.556 171.969 179.419C171.832 179.278 171.638 179.207 171.385 179.207L170.149 179.207L170.149 178.366L171.476 178.366C171.819 178.366 172.12 178.434 172.378 178.57C172.641 178.702 172.843 178.883 172.984 179.116C173.131 179.348 173.204 179.616 173.204 179.919C173.204 180.233 173.131 180.506 172.985 180.738C172.843 180.966 172.641 181.145 172.378 181.277C172.116 181.403 171.81 181.466 171.461 181.466L170.15 181.467ZM169.392 183.695L169.391 178.366L170.422 178.366L170.423 183.695L169.392 183.695ZM172.303 183.695L170.544 181.391L171.491 181.095L173.554 183.695L172.303 183.695ZM176.479 181.465L176.479 180.662L177.715 180.662C177.968 180.662 178.162 180.598 178.299 180.472C178.44 180.341 178.511 180.161 178.511 179.934C178.511 179.727 178.44 179.555 178.298 179.418C178.162 179.277 177.967 179.206 177.715 179.206L176.479 179.206L176.479 178.365L177.805 178.365C178.149 178.365 178.45 178.433 178.708 178.569C178.97 178.701 179.173 178.882 179.314 179.115C179.461 179.347 179.534 179.615 179.534 179.918C179.534 180.232 179.461 180.505 179.314 180.737C179.173 180.965 178.971 181.144 178.708 181.276C178.445 181.402 178.14 181.465 177.791 181.465L176.479 181.465ZM175.722 183.694L175.721 178.365L176.752 178.365L176.753 183.694L175.722 183.694ZM178.633 183.694L176.874 181.39L177.821 181.094L179.884 183.694L178.633 183.694ZM180.467 183.694L180.466 178.364L181.497 178.364L181.498 183.693L180.467 183.694ZM181.225 183.694L181.225 182.784L184.174 182.783L184.174 183.693L181.225 183.694ZM181.225 181.412L181.225 180.532L183.908 180.532L183.908 181.411L181.225 181.412ZM181.224 179.274L181.224 178.364L184.135 178.364L184.136 179.273L181.224 179.274ZM187.395 183.768C187.016 183.768 186.66 183.7 186.326 183.564C185.998 183.422 185.707 183.225 185.454 182.973C185.207 182.72 185.012 182.429 184.87 182.101C184.734 181.767 184.666 181.409 184.665 181.024C184.665 180.635 184.736 180.276 184.878 179.948C185.019 179.614 185.216 179.324 185.469 179.076C185.721 178.823 186.017 178.629 186.356 178.492C186.694 178.351 187.061 178.28 187.455 178.28C187.895 178.28 188.299 178.363 188.668 178.53C189.037 178.691 189.343 178.921 189.585 179.219L188.888 179.917C188.721 179.7 188.514 179.533 188.266 179.417C188.019 179.301 187.746 179.242 187.447 179.242C187.109 179.243 186.808 179.318 186.545 179.47C186.288 179.617 186.085 179.824 185.939 180.092C185.792 180.355 185.719 180.663 185.719 181.017C185.719 181.37 185.79 181.684 185.932 181.957C186.078 182.225 186.275 182.434 186.523 182.586C186.776 182.737 187.064 182.813 187.387 182.813C187.721 182.813 188.006 182.752 188.244 182.631C188.481 182.505 188.663 182.323 188.79 182.085C188.916 181.843 188.979 181.547 188.979 181.198L189.654 181.66L187.327 181.638L187.326 180.744L190.04 180.743L190.04 180.887C190.04 181.524 189.927 182.057 189.699 182.487C189.472 182.911 189.159 183.232 188.76 183.45C188.365 183.662 187.911 183.768 187.395 183.768Z" fill="#1E1E1E"/>
<path d="M196.83 180.86L194.177 183.514L191.523 180.861M196.83 178.207L194.177 180.861L191.523 178.208" stroke="#24393E" stroke-width="1.13714"/>
<rect x="148.32" y="229.008" width="163.749" height="24.259" rx="1.89524" fill="white"/>
<rect x="148.32" y="229.008" width="24.6381" height="24.259" rx="1.89524" fill="#BCB9B9"/>
<path d="M158.385 239.674C157.969 239.26 157.562 238.853 157.141 238.434C158.412 237.309 159.892 236.694 161.596 236.586L161.596 238.343C160.382 238.439 159.313 238.88 158.385 239.674Z" fill="black"/>
<path d="M162.34 236.586C164.042 236.693 165.52 237.307 166.787 238.425C166.368 238.843 165.959 239.252 165.543 239.667C164.626 238.881 163.557 238.438 162.34 238.342L162.34 236.586Z" fill="black"/>
<path d="M166.079 240.201C166.497 239.784 166.906 239.378 167.325 238.962C168.445 240.226 169.063 241.7 169.17 243.399L167.41 243.4C167.366 242.808 167.234 242.238 167.007 241.692C166.779 241.145 166.467 240.65 166.079 240.201L166.079 240.201Z" fill="black"/>
<path d="M157.844 240.191C157.675 240.43 157.493 240.664 157.335 240.912C156.873 241.643 156.61 242.443 156.536 243.304C156.531 243.357 156.539 243.411 156.456 243.41C155.901 243.408 155.346 243.409 154.766 243.409C154.869 241.705 155.489 240.231 156.611 238.96C157.029 239.376 157.439 239.786 157.844 240.19L157.844 240.191Z" fill="black"/>
<path d="M162.026 243.409C161.837 243.409 161.656 243.312 161.543 243.109C161.424 242.895 161.427 242.673 161.575 242.476C161.834 242.131 162.104 241.792 162.376 241.456C162.858 240.86 163.345 240.269 163.831 239.675C163.836 239.669 163.839 239.66 163.845 239.657C163.882 239.641 163.921 239.626 163.959 239.611C163.969 239.653 163.998 239.703 163.986 239.737C163.907 239.95 163.82 240.16 163.733 240.369C163.362 241.257 162.99 242.144 162.617 243.031C162.514 243.273 162.32 243.403 162.028 243.409L162.026 243.409Z" fill="black"/>
<path d="M148.865 226.152L148.864 220.823L149.592 220.823L151.753 224.279L151.336 224.279L153.488 220.822L154.216 220.822L154.217 226.151L153.194 226.151L153.193 222.588L153.39 222.649L151.889 225.06L151.192 225.06L149.691 222.65L149.895 222.589L149.896 226.152L148.865 226.152ZM155.306 226.151L155.305 220.822L156.336 220.822L156.337 226.151L155.306 226.151ZM157.43 226.151L157.43 220.821L158.461 220.821L158.461 226.151L157.43 226.151ZM158.189 226.151L158.188 225.233L160.902 225.233L160.903 226.15L158.189 226.151ZM161.643 226.15L161.642 220.821L162.673 220.821L162.674 226.15L161.643 226.15ZM162.401 226.15L162.401 225.24L165.35 225.24L165.35 226.15L162.401 226.15ZM162.401 223.868L162.4 222.989L165.084 222.988L165.084 223.868L162.401 223.868ZM162.4 221.73L162.4 220.821L165.311 220.82L165.311 221.73L162.4 221.73ZM165.809 226.149L167.954 220.82L168.795 220.82L170.934 226.149L169.835 226.149L168.181 221.775L168.56 221.775L166.886 226.149L165.809 226.149ZM166.946 225.156L166.946 224.292L169.812 224.291L169.812 225.156L166.946 225.156ZM173.724 226.224C173.345 226.224 172.988 226.156 172.655 226.019C172.326 225.878 172.035 225.681 171.783 225.428C171.535 225.176 171.34 224.885 171.199 224.557C171.062 224.223 170.994 223.864 170.994 223.48C170.994 223.091 171.065 222.732 171.206 222.404C171.348 222.07 171.545 221.779 171.797 221.532C172.05 221.279 172.346 221.084 172.684 220.948C173.023 220.806 173.389 220.735 173.783 220.735C174.223 220.735 174.627 220.819 174.996 220.985C175.365 221.147 175.671 221.377 175.914 221.675L175.216 222.373C175.05 222.155 174.842 221.989 174.595 221.872C174.347 221.756 174.074 221.698 173.776 221.698C173.437 221.698 173.137 221.774 172.874 221.926C172.616 222.072 172.414 222.28 172.267 222.547C172.121 222.81 172.048 223.119 172.048 223.472C172.048 223.826 172.119 224.139 172.26 224.412C172.407 224.68 172.604 224.89 172.852 225.041C173.104 225.193 173.392 225.269 173.716 225.269C174.049 225.269 174.335 225.208 174.572 225.087C174.81 224.96 174.992 224.778 175.118 224.541C175.244 224.298 175.308 224.002 175.308 223.654L175.982 224.116L173.655 224.094L173.655 223.199L176.369 223.199L176.369 223.343C176.369 223.98 176.255 224.513 176.028 224.942C175.801 225.367 175.487 225.688 175.088 225.905C174.694 226.118 174.239 226.224 173.724 226.224ZM177.16 226.148L177.159 220.818L178.19 220.818L178.191 226.147L177.16 226.148ZM177.918 226.147L177.918 225.238L180.867 225.237L180.867 226.147L177.918 226.147ZM177.918 223.866L177.918 222.986L180.601 222.986L180.602 223.865L177.918 223.866ZM177.918 221.728L177.917 220.818L180.828 220.818L180.829 221.727L177.918 221.728Z" fill="#1E1E1E"/>
<path d="M188.119 223.315L185.466 225.969L182.812 223.316M188.118 220.662L185.465 223.316L182.812 220.663" stroke="#24393E" stroke-width="1.13714"/>
<rect x="178.759" y="280.258" width="102.787" height="23.9136" rx="1.89524" fill="#24393E"/>
<path d="M263.088 289.999L265.68 292.59L263.089 295.183" stroke="#33363F" stroke-width="1.03681"/>
<path d="M199.29 291.17L200.248 291.17L198.15 294.973L197.404 294.973L195.311 291.17L196.275 291.17L197.78 293.905L199.29 291.17ZM203.489 294.972L203.101 294.244L200.875 294.244L200.493 294.972L199.529 294.972L201.572 291.169L202.409 291.169L204.453 294.972L203.489 294.972ZM201.281 293.474L202.694 293.474L201.99 292.14L201.281 293.474ZM204.965 294.971L204.965 291.169L205.82 291.169L205.82 294.201L209.004 294.201L209.004 294.971L204.965 294.971ZM210.731 294.97C210.057 294.971 209.609 294.595 209.608 293.952L209.608 291.168L210.457 291.168L210.457 293.739C210.458 294.037 210.627 294.206 210.925 294.206L212.617 294.206C212.944 294.206 213.084 294.054 213.084 293.739L213.083 291.168L213.92 291.167L213.92 293.951C213.921 294.6 213.49 294.97 212.811 294.97L210.731 294.97ZM214.672 294.97L214.672 291.167L218.729 291.167L218.729 291.931L215.533 291.931L215.533 292.653L218.378 292.653L218.378 293.423L215.533 293.423L215.534 294.199L218.73 294.199L218.73 294.969L214.672 294.97ZM225.308 291.166L226.375 291.165L224.41 293.628L224.411 294.968L223.574 294.968L223.573 293.628L221.584 291.166L222.663 291.166L223.986 292.827L225.308 291.166ZM227.679 294.968C227.012 294.968 226.575 294.592 226.575 293.961L226.575 292.19C226.575 291.541 226.993 291.165 227.679 291.165L229.783 291.165C230.456 291.165 230.881 291.541 230.881 292.19L230.881 293.96C230.881 294.591 230.457 294.967 229.778 294.967L227.679 294.968ZM227.867 294.204L229.596 294.203C229.893 294.203 230.032 294.064 230.032 293.76L230.032 292.372C230.032 292.074 229.892 291.929 229.565 291.929L227.891 291.929C227.564 291.929 227.424 292.099 227.424 292.372L227.424 293.761C227.424 294.046 227.594 294.204 227.867 294.204ZM232.698 294.967C232.024 294.967 231.576 294.591 231.575 293.948L231.575 291.165L232.424 291.164L232.424 293.736C232.425 294.033 232.594 294.203 232.892 294.203L234.584 294.202C234.911 294.202 235.051 294.051 235.051 293.735L235.05 291.164L235.887 291.164L235.887 293.948C235.888 294.596 235.457 294.966 234.778 294.967L232.698 294.967ZM241.012 294.966L240.048 294.966L239.162 293.565L237.494 293.565L237.495 294.966L236.639 294.966L236.639 291.164L239.944 291.163C240.538 291.163 240.951 291.533 240.951 292.091L240.951 292.582C240.951 293.11 240.654 293.48 240.145 293.553L241.012 294.966ZM237.494 291.928L237.494 292.801L239.769 292.801C239.987 292.801 240.108 292.673 240.108 292.479L240.108 292.243C240.108 292.049 239.962 291.927 239.768 291.927L237.494 291.928ZM245.252 294.965C244.579 294.965 244.142 294.589 244.142 293.964L244.142 292.193C244.141 291.551 244.566 291.162 245.239 291.162L247.992 291.162L247.993 291.926L245.482 291.926C245.136 291.926 244.991 292.102 244.991 292.375L244.991 293.758C244.991 294.049 245.167 294.195 245.452 294.195L247.993 294.194L247.993 294.964L245.252 294.965ZM252.155 294.964L251.767 294.236L249.541 294.236L249.159 294.964L248.195 294.964L250.238 291.161L251.075 291.161L253.119 294.964L252.155 294.964ZM249.947 293.466L251.36 293.466L250.657 292.132L249.947 293.466ZM258.004 294.963L257.04 294.963L256.154 293.562L254.486 293.562L254.487 294.963L253.631 294.964L253.631 291.161L256.936 291.16C257.53 291.16 257.943 291.53 257.943 292.088L257.943 292.579C257.943 293.107 257.646 293.477 257.137 293.55L258.004 294.963ZM254.486 291.925L254.486 292.798L256.761 292.798C256.979 292.798 257.1 292.67 257.1 292.476L257.1 292.24C257.1 292.046 256.954 291.925 256.76 291.925L254.486 291.925Z" fill="white"/>
<path d="M199.243 99.7734V106.053C199.243 110.143 202.553 113.453 206.643 113.453H260.263C264.353 113.453 267.663 110.143 267.663 106.053V99.7734" stroke="#333333" stroke-width="10" stroke-miterlimit="10"/>
<rect x="133.502" y="337.773" width="187" height="26" fill="#D9D9D9"/>
<rect x="134.502" y="452.773" width="187" height="56" fill="#D9D9D9"/>
<rect x="134.502" y="381.773" width="58" height="56" fill="#D9D9D9"/>
<rect x="198.502" y="380.773" width="58" height="56" fill="#D9D9D9"/>
<rect x="261.502" y="380.773" width="58" height="56" fill="#D9D9D9"/>
<circle cx="229.502" cy="481.773" r="27" fill="white"/>
<path d="M215.131 488.955C214.172 488.955 213.346 488.801 212.651 488.492C211.968 488.173 211.34 487.693 210.767 487.054L212.453 485.385C212.828 485.815 213.241 486.151 213.693 486.393C214.156 486.625 214.69 486.74 215.296 486.74C215.847 486.74 216.271 486.641 216.569 486.443C216.877 486.244 217.032 485.969 217.032 485.616C217.032 485.297 216.933 485.038 216.734 484.839C216.536 484.641 216.271 484.47 215.941 484.327C215.621 484.184 215.263 484.046 214.866 483.914C214.481 483.781 214.095 483.633 213.709 483.467C213.324 483.291 212.965 483.076 212.635 482.823C212.315 482.558 212.056 482.233 211.858 481.847C211.66 481.451 211.56 480.955 211.56 480.36C211.56 479.643 211.731 479.026 212.073 478.508C212.425 477.99 212.91 477.599 213.527 477.335C214.145 477.059 214.855 476.922 215.66 476.922C216.475 476.922 217.219 477.065 217.891 477.351C218.575 477.638 219.137 478.029 219.577 478.525L217.891 480.194C217.539 479.831 217.181 479.561 216.817 479.384C216.464 479.208 216.062 479.12 215.61 479.12C215.158 479.12 214.8 479.208 214.536 479.384C214.271 479.55 214.139 479.792 214.139 480.112C214.139 480.409 214.238 480.652 214.437 480.839C214.635 481.015 214.894 481.17 215.213 481.302C215.544 481.434 215.902 481.566 216.288 481.699C216.685 481.831 217.076 481.985 217.462 482.161C217.847 482.338 218.2 482.564 218.519 482.839C218.85 483.104 219.114 483.445 219.313 483.864C219.511 484.272 219.61 484.779 219.61 485.385C219.61 486.498 219.214 487.374 218.42 488.013C217.627 488.641 216.53 488.955 215.131 488.955ZM221.264 488.773V477.103H223.859V488.773H221.264ZM223.247 488.773V486.525H229.644V488.773H223.247ZM223.247 483.897V481.732H229.066V483.897H223.247ZM223.247 479.335V477.103H229.561V479.335H223.247ZM231.433 488.773V477.103H234.028V488.773H231.433ZM233.433 488.773V486.492H239.202V488.773H233.433ZM240.699 488.773V477.103H243.294V488.773H240.699ZM242.699 488.773V486.492H248.468V488.773H242.699Z" fill="#24393E"/>
<path d="M406.086 209.874H351.366C346.046 209.874 341.726 214.194 341.726 219.514V268.234C341.726 273.554 346.046 277.874 351.366 277.874H406.086C411.406 277.874 415.726 273.554 415.726 268.234V219.514C415.726 214.194 411.406 209.874 406.086 209.874ZM378.726 223.874C375.966 223.874 373.726 221.634 373.726 218.874C373.726 216.114 375.966 213.874 378.726 213.874C381.486 213.874 383.726 216.114 383.726 218.874C383.726 221.634 381.486 223.874 378.726 223.874Z" fill="#24393E"/>
<path d="M359.355 243.074C359.355 241.234 359.705 239.554 360.405 238.054C361.105 236.554 362.155 235.334 363.545 234.414C364.935 233.494 366.565 233.034 368.415 233.034C369.705 233.034 370.865 233.224 371.875 233.594C372.885 233.964 373.705 234.454 374.315 235.044C374.925 235.634 375.435 236.354 375.835 237.184C376.235 238.014 376.505 238.854 376.655 239.694C376.805 240.534 376.885 241.434 376.885 242.374C376.885 243.524 376.795 244.594 376.625 245.584C376.455 246.574 376.145 247.524 375.705 248.434C375.265 249.354 374.715 250.134 374.035 250.774C373.365 251.424 372.495 251.934 371.445 252.314C370.395 252.694 369.205 252.884 367.865 252.884C362.195 252.884 359.355 249.614 359.355 243.084V243.074ZM366.175 243.074V243.214C366.175 243.604 366.175 243.924 366.175 244.154C366.175 244.394 366.205 244.744 366.235 245.214C366.265 245.684 366.325 246.074 366.425 246.384C366.515 246.694 366.635 247.004 366.785 247.334C366.935 247.664 367.135 247.914 367.395 248.084C367.655 248.254 367.945 248.334 368.285 248.334C368.625 248.334 368.915 248.234 369.145 248.044C369.385 247.844 369.555 247.624 369.665 247.374C369.775 247.124 369.865 246.794 369.935 246.384C369.995 245.974 370.035 245.654 370.045 245.434C370.055 245.214 370.045 244.924 370.045 244.574V241.354C370.045 240.844 370.025 240.414 369.995 240.064C369.965 239.714 369.895 239.334 369.775 238.924C369.655 238.514 369.485 238.204 369.225 237.994C368.975 237.774 368.645 237.674 368.235 237.674C367.975 237.684 367.745 237.754 367.535 237.864C367.335 237.974 367.155 238.134 367.015 238.354C366.875 238.574 366.745 238.774 366.645 238.984C366.535 239.184 366.455 239.464 366.395 239.804C366.335 240.154 366.285 240.434 366.245 240.654C366.205 240.874 366.175 241.184 366.165 241.564C366.155 241.954 366.145 242.214 366.145 242.354V243.084L366.175 243.074ZM369.355 263.344C370.555 261.144 372.215 258.134 374.315 254.294C376.415 250.454 378.355 246.934 380.105 243.724C381.865 240.514 383.525 237.494 385.075 234.674L385.975 233.064C386.145 232.894 386.245 232.804 386.285 232.794H387.535C388.005 232.794 388.505 232.794 389.025 232.824C389.545 232.844 389.965 232.864 390.275 232.894C390.585 232.924 390.745 232.944 390.745 232.954C390.055 234.284 388.245 237.814 385.335 243.544C382.415 248.734 378.915 255.634 374.825 264.254C374.655 264.624 373.815 264.804 372.315 264.804C371.975 264.804 371.535 264.794 370.985 264.764C370.435 264.734 370.065 264.724 369.885 264.724L369.335 263.354L369.355 263.344ZM383.235 254.054C383.335 252.664 383.595 251.404 383.985 250.254C384.385 249.104 384.935 248.074 385.645 247.174C386.355 246.274 387.255 245.564 388.355 245.054C389.455 244.544 390.705 244.294 392.105 244.294C392.965 244.294 393.795 244.384 394.585 244.574C395.375 244.764 396.165 245.094 396.945 245.564C397.725 246.034 398.405 246.634 398.975 247.354C399.545 248.074 400.005 249.024 400.355 250.174C400.705 251.334 400.885 252.644 400.885 254.124C400.885 255.774 400.645 257.244 400.175 258.544C399.705 259.844 399.055 260.904 398.235 261.724C397.415 262.544 396.445 263.164 395.345 263.594C394.235 264.024 393.045 264.244 391.745 264.244C390.375 264.244 389.165 264.044 388.125 263.634C387.085 263.224 386.265 262.714 385.655 262.094C385.045 261.474 384.555 260.714 384.185 259.834C383.815 258.944 383.565 258.084 383.435 257.244C383.305 256.404 383.235 255.514 383.235 254.554V254.044V254.054ZM390.015 254.994C390.015 258.104 390.735 259.664 392.175 259.664C393.405 259.664 394.015 258.474 394.015 256.094C394.015 255.844 394.015 255.464 393.995 254.954C393.975 254.444 393.975 254.064 393.975 253.814V253.304C394.005 253.174 394.015 252.954 394.015 252.634C394.015 252.204 393.985 251.804 393.935 251.424C393.885 251.054 393.795 250.674 393.665 250.284C393.535 249.894 393.335 249.594 393.055 249.364C392.785 249.134 392.445 249.024 392.055 249.024C391.665 249.024 391.325 249.164 391.055 249.454C390.775 249.744 390.575 250.064 390.445 250.414C390.315 250.764 390.215 251.234 390.145 251.814C390.075 252.394 390.035 252.844 390.025 253.144C390.025 253.454 390.025 253.844 390.025 254.314V254.984L390.015 254.994Z" fill="white"/>
<path d="M331.725 123.874C344.835 138.704 356.905 150.864 369.815 165.844L372.975 169.644C380.425 178.454 383.155 190.264 383.925 201.564C383.985 203.744 384.055 206.814 383.785 209.894C383.825 209.894 383.865 209.884 383.915 209.884C383.915 209.884 383.925 209.884 383.935 209.884C384.265 206.794 384.285 203.704 384.295 201.544C383.945 190.094 381.445 177.894 373.745 169.004L370.585 165.204C357.685 150.224 344.435 137.404 331.345 122.614" fill="black"/>
<path d="M316.905 102.304C314.605 99.2943 311.915 96.7043 308.275 95.2443C294.285 90.0643 305.985 129.204 307.975 134.984C317.665 164.634 335.255 198.494 361.455 216.544C366.775 219.824 373.855 223.594 379.975 220.334C369.045 225.794 354.005 210.484 347.135 202.994C329.335 183.564 316.985 159.654 308.925 134.674C305.985 125.304 303.315 115.714 302.595 105.894C302.415 102.304 302.135 93.5543 307.915 96.1743C310.725 97.3143 312.795 98.6643 314.715 100.874" fill="black"/>
<path d="M52.6926 490.613C52.6926 491.613 51.6926 517.233 54.1926 516.923C56.6926 516.613 95.0427 516.673 95.0427 516.673L93.3426 485.973L52.6926 490.613Z" fill="#EAA289"/>
<path d="M68.9823 500.533C74.9523 502.163 81.4823 502.423 87.2123 500.103C89.2623 499.273 91.2423 498.073 92.5523 496.283C93.4923 494.993 94.0523 493.453 94.2923 491.883C95.3323 485.223 90.1223 478.243 83.4423 477.343C81.4923 477.083 79.5123 477.273 77.5523 477.493C71.4823 478.183 65.4323 479.113 59.4423 480.303C54.1423 481.353 48.8123 481.083 50.6523 487.573C52.9423 495.653 61.4423 498.483 68.9923 500.543L68.9823 500.533Z" fill="#C5765D"/>
<path d="M98.6924 500.613L100.692 528.613L14.6924 527.613C14.6924 527.613 29.6924 508.613 51.6924 505.613C51.6924 505.613 64.6924 519.613 78.6924 512.613C92.6924 505.613 93.3824 500.613 93.3824 500.613L93.6924 498.613L98.6924 500.613Z" fill="#2D2729"/>
<path d="M100.692 536.174L12.6924 534.614L13.6924 527.614L100.692 528.614V536.174Z" fill="#FFB9D5"/>
<path d="M80.3626 528.273C80.1226 519.453 84.6426 510.653 91.9426 505.713C93.8626 504.413 96.0726 503.243 97.0626 501.143C97.1426 500.983 97.2026 500.783 97.1126 500.633C97.0226 500.483 96.7126 500.533 96.7426 500.713" stroke="#FFB9D5" stroke-miterlimit="10"/>
<path d="M44.0723 507.363C44.9623 508.733 45.9023 510.093 47.1023 511.193C48.3023 512.293 49.8123 513.143 51.4323 513.283C51.5323 513.283 51.6723 513.283 51.7023 513.173C51.7323 513.063 51.5023 513.063 51.5623 513.153" stroke="#FFB9D5" stroke-miterlimit="10"/>
<path d="M37.1826 510.173C38.3826 512.033 39.6226 513.943 41.4226 515.243C42.0626 515.703 42.7626 516.083 43.4526 516.453C43.5926 516.523 43.7326 516.603 43.8626 516.673" stroke="#FFB9D5" stroke-miterlimit="10"/>
<path d="M31.7026 513.483L32.8426 515.233C33.4926 516.233 34.1426 517.233 35.0126 518.053C36.1226 519.093 37.5126 519.773 38.9126 520.363C38.9426 520.273 38.9726 520.183 39.0126 520.093" stroke="#FFB9D5" stroke-miterlimit="10"/>
<path d="M152.692 286.613C152.692 286.613 134.692 329.613 117.692 353.613L111.692 494.613H41.9424V342.513L141.512 286.613H152.692Z" fill="#24393E" stroke="#C4FFE3" stroke-miterlimit="10"/>
<path d="M112.432 477.323H41.9424V494.613H111.692L112.432 477.323Z" fill="#C4FFE3"/>
<path d="M94.9023 442.503C95.5723 443.243 112.092 462.853 113.732 460.933C115.372 459.013 143.752 433.233 143.752 433.233L121.812 411.683L94.9023 442.503Z" fill="#EAA289"/>
<path d="M113.623 438.873C119.133 436.053 124.133 431.853 126.803 426.273C127.763 424.273 128.413 422.063 128.173 419.853C128.003 418.273 127.373 416.753 126.493 415.423C122.773 409.803 114.213 408.153 108.683 411.983C107.063 413.103 105.733 414.583 104.433 416.063C100.403 420.663 96.5725 425.423 92.9325 430.343C89.7225 434.693 85.6026 438.083 91.3326 441.643C98.4726 446.073 106.653 442.433 113.623 438.873Z" fill="#C5765D"/>
<path d="M135.643 418.903L155.983 438.253L91.7527 495.453C91.7527 495.453 90.0427 471.303 104.273 454.273C104.273 454.273 123.313 455.863 128.943 441.253C134.573 426.653 131.713 422.483 131.713 422.483L130.593 420.793L135.633 418.903H135.643Z" fill="#2D2729"/>
<path d="M161.072 443.843L94.9824 501.963L91.0024 496.123L155.982 438.253L161.072 443.843Z" fill="#FFB9D5"/>
<path d="M140.722 451.693C134.602 445.343 132.012 435.793 134.082 427.213C134.622 424.963 135.472 422.603 134.782 420.383C134.732 420.213 134.642 420.023 134.472 419.973C134.302 419.923 134.112 420.173 134.252 420.283" stroke="#FFB9D5" stroke-miterlimit="10"/>
<path d="M99.8125 460.694C101.393 461.104 103.002 461.473 104.632 461.483C106.262 461.493 107.943 461.103 109.243 460.113C109.323 460.053 109.413 459.943 109.373 459.853C109.333 459.763 109.153 459.904 109.253 459.934" stroke="#FFB9D5" stroke-miterlimit="10"/>
<path d="M96.6123 467.413C98.7523 467.983 100.952 468.553 103.152 468.303C103.932 468.213 104.702 468.023 105.472 467.833C105.622 467.793 105.772 467.753 105.932 467.723" stroke="#FFB9D5" stroke-miterlimit="10"/>
<path d="M94.8022 473.543L96.8222 474.073C97.9722 474.373 99.1322 474.673 100.322 474.693C101.842 474.723 103.332 474.283 104.762 473.773C104.722 473.683 104.692 473.593 104.652 473.513" stroke="#FFB9D5" stroke-miterlimit="10"/>
<path d="M64.6922 275.613L9.69224 329.613C9.69224 329.613 -12.3078 349.613 13.6922 376.613C39.6922 403.613 85.6922 454.613 85.6922 454.613L131.692 412.613L77.6922 359.613C77.6922 359.613 133.692 323.613 148.692 286.613" fill="#24393E"/>
<path d="M64.6922 275.613L9.69224 329.613C9.69224 329.613 -12.3078 349.613 13.6922 376.613C39.6922 403.613 85.6922 454.613 85.6922 454.613L131.692 412.613L77.6922 359.613C77.6922 359.613 133.692 323.613 148.692 286.613" stroke="#C4FFE3" stroke-miterlimit="10"/>
<path d="M100.693 280.613L34.6927 342.613C34.6927 342.613 28.6927 355.613 42.6927 369.613C56.6927 383.613 97.6927 426.613 97.6927 426.613" stroke="#C4FFE3" stroke-miterlimit="10"/>
<path d="M74.8525 442.643C75.2025 443.113 119.493 400.833 120.353 401.473C121.213 402.113 131.703 412.613 131.703 412.613L85.7025 454.613L74.8525 442.643Z" fill="#C4FFE3"/>
<path d="M44.6924 338.613L49.0724 334.513" stroke="#C4FFE3" stroke-miterlimit="10"/>
<path d="M59.0425 325.193L93.9125 292.553" stroke="#C4FFE3" stroke-miterlimit="10"/>
<path d="M98.8926 287.893L103.273 283.793" stroke="#C4FFE3" stroke-miterlimit="10"/>
<path d="M5.19238 192.113L10.1924 188.113L44.6924 229.413L39.1924 234.113L5.19238 192.113Z" fill="#42210B"/>
<path d="M83.2324 158.393C84.5124 161.433 84.8224 164.883 84.0924 168.113C83.5324 170.613 82.3524 173.013 82.3224 175.583C82.2524 180.773 87.0224 185.023 92.0924 186.153C97.1624 187.283 102.422 186.053 107.462 184.793C110.832 183.953 114.442 182.943 116.642 180.263C119.642 176.603 118.932 171.073 116.782 166.853C114.632 162.633 111.302 159.113 109.102 154.923C106.902 150.733 106.052 145.253 108.912 141.483C107.562 141.453 106.212 141.423 104.862 141.393C106.472 136.053 107.952 130.363 106.522 124.973C105.092 119.583 99.6724 114.843 94.2624 116.173C91.2424 116.913 88.6524 119.363 85.5424 119.233C78.5724 118.943 70.9924 109.943 64.3324 118.033C60.6324 122.533 64.0724 126.893 64.7224 131.823C65.1724 135.173 62.1924 139.263 62.1924 142.133C62.1924 145.003 64.1924 143.133 67.4124 145.563C70.0024 147.523 70.0524 151.723 72.7024 154.143C75.5524 156.743 79.3524 158.353 83.2224 158.403L83.2324 158.393Z" fill="#EFA588"/>
<path d="M147.062 197.513C152.362 204.343 157.472 211.453 160.622 219.513C164.022 228.233 164.992 237.793 164.332 247.133C163.362 260.823 159.902 277.713 152.502 289.273C123.582 286.973 91.5224 282.583 63.0024 277.273C64.8724 244.323 72.9425 208.733 82.5125 177.143C83.7825 179.113 86.7325 178.763 88.9725 178.063C95.1125 176.163 100.992 173.443 106.432 170.023C112.592 166.143 114.282 160.943 120.012 166.593C129.742 176.183 138.692 186.733 147.072 197.513H147.062Z" fill="#FFD860"/>
<path d="M99.3425 258.603C103.492 260.093 107.622 261.673 111.882 262.823C117.032 264.213 122.342 264.973 127.632 265.653C137.022 266.863 146.952 267.783 155.612 263.953C157.892 262.943 160.352 260.973 159.912 258.523C159.462 256.043 156.462 255.083 153.982 254.673C131.002 250.853 107.432 251.493 84.5125 247.273C80.8625 246.603 77.2325 245.803 73.5625 245.283C72.0025 245.063 70.1425 244.423 68.9325 245.513C68.0325 246.333 67.7525 247.693 68.4625 248.633C69.9125 250.543 75.1225 250.923 77.2725 251.533C80.8225 252.543 84.3625 253.603 87.8825 254.723C91.7225 255.953 95.5525 257.243 99.3425 258.613V258.603Z" fill="#C4725A"/>
<path d="M122.012 235.273C122.542 226.413 121.852 217.483 119.942 208.813C119.042 204.723 117.812 200.563 115.132 197.353" stroke="#C75629" stroke-miterlimit="10"/>
<path d="M68.6326 121.963C70.1126 120.243 71.5926 118.513 73.0726 116.793C74.9926 121.123 76.9626 125.543 80.1826 129.013C83.4026 132.483 88.1526 134.913 92.8226 134.123C93.6526 133.983 94.4926 133.723 95.0926 133.133C96.5926 131.643 95.7926 128.883 97.1026 127.213C98.6026 125.313 101.973 126.283 103.093 128.433C104.213 130.583 103.703 133.193 102.943 135.493C102.183 137.793 101.183 140.123 101.393 142.533C101.433 143.023 101.543 143.533 101.893 143.873C102.143 144.113 102.473 144.233 102.803 144.323C107.183 145.553 111.903 142.633 114.083 138.643C116.263 134.653 116.423 129.893 116.183 125.353C115.973 121.423 115.483 117.473 114.143 113.773C111.153 105.493 103.933 99.0434 95.5826 96.2534C87.2326 93.4634 77.9226 94.1634 69.7426 97.4234C64.4526 99.5334 59.4926 102.763 56.0726 107.313C53.0826 111.283 49.4226 120.173 52.1826 125.123C56.4926 132.853 64.9226 126.283 68.6426 121.943L68.6326 121.963Z" fill="#312323"/>
<path d="M83.5522 158.133C87.0522 157.333 89.9122 154.933 91.9822 152.053C91.0522 153.593 89.9622 155.063 88.6022 156.303C87.2422 157.543 85.6022 158.483 83.8422 159.103L83.5522 158.143V158.133Z" fill="#C75629"/>
<path d="M72.8422 151.133C75.9422 152.073 78.4622 148.623 79.1322 145.903C78.9322 147.493 78.2422 149.033 77.1722 150.293C76.0822 151.593 74.3122 152.573 72.5522 152.083L72.8522 151.133H72.8422Z" fill="#C75629"/>
<path d="M260.523 49.9034C262.363 39.0734 256.873 27.6734 247.923 21.3034C238.973 14.9334 227.093 13.3834 216.423 15.9434C205.753 18.5034 196.233 24.9134 188.763 32.9634C182.813 39.3734 177.643 47.1334 169.553 50.4434C158.473 54.9734 144.423 49.9934 134.703 56.9834C122.823 65.5334 125.483 86.2634 113.253 94.2934C112.003 95.1133 110.503 95.9434 110.203 97.4134C110.013 98.3834 110.423 99.3633 110.823 100.273C113.103 105.373 115.383 110.473 117.673 115.583C118.063 116.463 118.483 117.373 119.213 118.013C120.013 118.713 121.083 118.983 122.103 119.233C137.973 123.083 156.353 124.513 169.073 114.283C183.243 102.893 184.303 82.5234 196.853 69.9834C209.793 57.0534 226.823 75.5434 242.293 70.3334C251.303 67.3034 258.893 59.4134 260.513 49.9034H260.523Z" fill="#312323"/>
<path d="M41.7223 230.183C43.0323 227.363 39.9823 224.623 37.6523 222.563C35.3223 220.503 33.7723 216.043 36.6623 214.873C38.0623 214.303 39.6223 215.063 40.8923 215.883C46.7723 219.663 51.5123 225.023 57.3823 228.813C68.1023 235.743 81.5723 236.803 94.3223 236.183C107.072 235.563 119.852 233.483 132.542 234.923C136.872 235.413 141.342 236.393 144.762 239.103C146.652 240.593 148.122 242.533 149.572 244.453C152.382 248.163 155.192 251.873 158.002 255.583C145.842 263.483 130.042 263.183 115.902 259.983C101.762 256.783 88.2323 250.993 73.9123 248.723C66.0923 247.483 58.1323 247.313 50.3123 246.093C42.4923 244.873 34.6023 242.503 28.4823 237.473C24.5823 234.263 13.7423 218.643 21.2323 214.183C23.8123 212.653 41.8423 229.943 41.7323 230.183H41.7223Z" fill="#E8A68D"/>
<path d="M106.302 102.013C106.902 100.433 107.942 99.0134 109.262 97.9534C114.232 103.193 117.612 109.923 118.862 117.033C117.492 117.703 116.182 118.513 114.972 119.433" fill="#24393E"/>
<path d="M68.6924 134.113C69.5208 134.113 70.1924 133.442 70.1924 132.613C70.1924 131.785 69.5208 131.113 68.6924 131.113C67.864 131.113 67.1924 131.785 67.1924 132.613C67.1924 133.442 67.864 134.113 68.6924 134.113Z" fill="#312323"/>
</svg>
