<svg width="155" height="155" viewBox="0 0 155 155" fill="none" xmlns="http://www.w3.org/2000/svg">
<circle cx="77.5" cy="77.5" r="77.5" fill="#FFC000"/>
<path d="M61.9677 92.6863H40.1075V114.489H61.9677V92.6863Z" fill="#24393E"/>
<path d="M90.1559 61.13V79.995C83.477 85.5776 79.2258 93.9543 79.2258 103.301C79.2258 107.248 79.9852 111.023 81.3658 114.489H68.2957V61.13H90.1559Z" fill="#24393E"/>
<path d="M118.919 29V74.3091C116.014 73.3854 112.919 72.8919 109.715 72.8919C105.205 72.8919 100.913 73.8731 97.0591 75.6402V29H118.919Z" fill="#24393E"/>
<path d="M94.1828 119.079V124.816H24V113.915H29.7527V119.079H94.1828Z" fill="#24393E"/>
<path d="M109.715 123.956C98.296 123.956 89.0054 114.69 89.0054 103.301C89.0054 91.9118 98.296 82.6457 109.715 82.6457C121.134 82.6457 130.425 91.9118 130.425 103.301C130.425 114.69 121.134 123.956 109.715 123.956ZM109.715 89.5307C102.104 89.5307 95.9086 95.71 95.9086 103.301C95.9086 110.891 102.104 117.071 109.715 117.071C117.326 117.071 123.521 110.891 123.521 103.301C123.521 95.71 117.326 89.5307 109.715 89.5307Z" fill="#24393E"/>
<path d="M120.07 101.866V105.883H111.441V114.489H107.414V105.883H98.7849V101.866H107.414V93.2601H111.441V101.866H120.07Z" fill="#24393E"/>
<path d="M131 119.653V125H125.305C125.305 125 128.699 123.669 131 119.653Z" fill="#24393E"/>
</svg>
